<svg xmlns="http://www.w3.org/2000/svg" xmlns:xlink="http://www.w3.org/1999/xlink" width="1080" zoomAndPan="magnify" viewBox="0 0 810 809.999993" height="1080" preserveAspectRatio="xMidYMid meet" version="1.0"><defs><clipPath id="54e9ed25d1"><path d="M 56 125 L 754 125 L 754 685.082031 L 56 685.082031 Z M 56 125 " clip-rule="nonzero"/></clipPath></defs><path fill="#ffffff" d="M 550.941406 318.132812 C 468.5625 318.132812 401.558594 385.140625 401.558594 467.492188 C 401.558594 549.847656 468.5625 616.878906 550.941406 616.878906 C 633.316406 616.878906 700.324219 549.871094 700.324219 467.492188 C 700.324219 385.117188 633.316406 318.132812 550.941406 318.132812 Z M 676.492188 455.890625 L 651.9375 455.890625 C 650.917969 423.828125 642.476562 393.464844 627.527344 367.539062 C 654.683594 388.375 673.191406 419.921875 676.492188 455.890625 Z M 562.84375 593.046875 C 562.75 593.046875 562.65625 593.046875 562.589844 593.070312 L 562.589844 479.164062 L 628.039062 479.164062 C 623.457031 527.175781 599.441406 569.609375 562.84375 593.046875 Z M 473.191406 479.140625 L 539.339844 479.140625 L 539.339844 593.046875 C 539.011719 593.023438 538.664062 593.023438 538.339844 593 C 501.742188 569.585938 477.769531 527.152344 473.191406 479.140625 Z M 521.132812 345.105469 C 527.0625 343.664062 533.105469 342.546875 539.316406 341.988281 L 539.316406 455.890625 L 472.539062 455.890625 C 474.191406 412.578125 491.976562 371.820312 521.132812 345.105469 Z M 562.566406 455.890625 L 562.566406 341.988281 C 568.449219 342.523438 574.191406 343.546875 579.839844 344.871094 C 609.136719 371.609375 627.015625 412.460938 628.6875 455.890625 Z M 473.074219 368.496094 C 458.472656 394.207031 450.289062 424.226562 449.289062 455.867188 L 425.410156 455.867188 C 428.667969 420.480469 446.617188 389.351562 473.074219 368.496094 Z M 425.410156 479.140625 L 449.941406 479.140625 C 452.988281 515.296875 465.796875 548.800781 486.140625 575.539062 C 452.613281 555.332031 429.179688 520.085938 425.410156 479.140625 Z M 614.414062 576.328125 C 635.128906 549.472656 648.171875 515.667969 651.265625 479.140625 L 676.492188 479.140625 C 672.679688 520.621094 648.660156 556.261719 614.414062 576.328125 Z M 614.414062 576.328125 " fill-opacity="1" fill-rule="nonzero"/><path fill="#ffffff" d="M 136.339844 533.5 L 106.046875 563.796875 L 146.40625 604.160156 L 176.703125 573.863281 L 211.066406 608.226562 L 254.3125 455.890625 L 102 499.136719 Z M 146.40625 510.691406 L 220.554688 489.652344 L 199.511719 563.773438 L 176.703125 540.988281 L 146.40625 571.28125 L 138.921875 563.796875 L 169.238281 533.5 Z M 146.40625 510.691406 " fill-opacity="1" fill-rule="nonzero"/><path fill="#ffffff" d="M 264.304688 429.472656 L 301.75 392.015625 L 318.195312 408.453125 L 280.75 445.910156 Z M 264.304688 429.472656 " fill-opacity="1" fill-rule="nonzero"/><path fill="#ffffff" d="M 209.835938 360.171875 L 233.085938 360.171875 L 233.085938 413.113281 L 209.835938 413.113281 Z M 209.835938 360.171875 " fill-opacity="1" fill-rule="nonzero"/><path fill="#ffffff" d="M 296.605469 476.609375 L 349.546875 476.609375 L 349.546875 499.859375 L 296.605469 499.859375 Z M 296.605469 476.609375 " fill-opacity="1" fill-rule="nonzero"/><g clip-path="url(#54e9ed25d1)"><path fill="#ffffff" d="M 56.242188 125.503906 L 56.242188 686.835938 L 753.753906 686.835938 L 753.753906 125.503906 Z M 730.5 148.753906 L 730.5 255.03125 L 79.492188 255.03125 L 79.492188 148.753906 Z M 79.492188 663.5625 L 79.492188 278.28125 L 730.5 278.28125 L 730.5 663.5625 Z M 79.492188 663.5625 " fill-opacity="1" fill-rule="nonzero"/></g><path fill="#ffffff" d="M 659.007812 234.503906 L 673.351562 220.132812 L 687.722656 234.503906 L 704.160156 218.066406 L 689.8125 203.695312 L 704.160156 189.351562 L 687.722656 172.914062 L 673.351562 187.257812 L 659.007812 172.914062 L 642.570312 189.351562 L 656.914062 203.695312 L 642.570312 218.066406 Z M 659.007812 234.503906 " fill-opacity="1" fill-rule="nonzero"/><path fill="#ffffff" d="M 566.703125 191.929688 L 614.644531 191.929688 L 614.644531 215.183594 L 566.703125 215.183594 Z M 566.703125 191.929688 " fill-opacity="1" fill-rule="nonzero"/><path fill="#ffffff" d="M 132.945312 238.523438 C 152.242188 238.523438 167.9375 222.832031 167.9375 203.554688 C 167.9375 184.28125 152.242188 168.566406 132.945312 168.566406 C 113.671875 168.566406 97.976562 184.257812 97.976562 203.535156 C 97.976562 222.808594 113.671875 238.523438 132.945312 238.523438 Z M 132.945312 191.816406 C 139.410156 191.816406 144.6875 197.070312 144.6875 203.535156 C 144.6875 209.996094 139.410156 215.273438 132.945312 215.273438 C 126.484375 215.273438 121.226562 210.019531 121.226562 203.554688 C 121.226562 197.09375 126.484375 191.816406 132.945312 191.816406 Z M 132.945312 191.816406 " fill-opacity="1" fill-rule="nonzero"/><path fill="#ffffff" d="M 236.015625 238.523438 C 255.289062 238.523438 270.984375 222.832031 270.984375 203.554688 C 270.984375 184.28125 255.3125 168.566406 236.015625 168.566406 C 216.71875 168.566406 201.023438 184.257812 201.023438 203.535156 C 201.023438 222.808594 216.71875 238.523438 236.015625 238.523438 Z M 236.015625 191.816406 C 242.476562 191.816406 247.734375 197.070312 247.734375 203.535156 C 247.734375 209.996094 242.5 215.273438 236.015625 215.273438 C 229.527344 215.273438 224.296875 210.019531 224.296875 203.554688 C 224.296875 197.09375 229.550781 191.816406 236.015625 191.816406 Z M 236.015625 191.816406 " fill-opacity="1" fill-rule="nonzero"/></svg>