<svg xmlns="http://www.w3.org/2000/svg" xmlns:xlink="http://www.w3.org/1999/xlink" width="1080" zoomAndPan="magnify" viewBox="0 0 810 809.999993" height="1080" preserveAspectRatio="xMidYMid meet" version="1.0"><defs><clipPath id="5c55456b12"><path d="M 56 125 L 754 125 L 754 685.082031 L 56 685.082031 Z M 56 125 " clip-rule="nonzero"/></clipPath></defs><path fill="#000000" d="M 550.996094 318.105469 C 468.613281 318.105469 401.597656 385.101562 401.597656 467.445312 C 401.597656 549.785156 468.613281 616.804688 550.996094 616.804688 C 633.382812 616.804688 700.398438 549.808594 700.398438 467.445312 C 700.398438 385.078125 633.382812 318.105469 550.996094 318.105469 Z M 676.5625 455.84375 L 652.007812 455.84375 C 650.984375 423.785156 642.546875 393.425781 627.59375 367.503906 C 654.753906 388.335938 673.261719 419.878906 676.5625 455.84375 Z M 562.902344 592.976562 C 562.8125 592.976562 562.71875 592.976562 562.648438 593 L 562.648438 479.113281 L 628.105469 479.113281 C 623.523438 527.117188 599.503906 569.542969 562.902344 592.976562 Z M 473.238281 479.089844 L 539.394531 479.089844 L 539.394531 592.976562 C 539.070312 592.953125 538.71875 592.953125 538.394531 592.929688 C 501.792969 569.519531 477.820312 527.09375 473.238281 479.089844 Z M 521.1875 345.070312 C 527.117188 343.628906 533.164062 342.515625 539.371094 341.957031 L 539.371094 455.84375 L 472.589844 455.84375 C 474.238281 412.535156 492.027344 371.78125 521.1875 345.070312 Z M 562.625 455.84375 L 562.625 341.957031 C 568.507812 342.492188 574.25 343.515625 579.902344 344.839844 C 609.199219 371.574219 627.082031 412.417969 628.757812 455.84375 Z M 473.125 368.457031 C 458.519531 394.167969 450.335938 424.179688 449.335938 455.820312 L 425.453125 455.820312 C 428.710938 420.4375 446.660156 389.3125 473.125 368.457031 Z M 425.453125 479.089844 L 449.988281 479.089844 C 453.03125 515.238281 465.84375 548.738281 486.191406 575.472656 C 452.660156 555.269531 429.222656 520.027344 425.453125 479.089844 Z M 614.480469 576.261719 C 635.195312 549.414062 648.242188 515.609375 651.335938 479.089844 L 676.5625 479.089844 C 672.75 520.5625 648.730469 556.199219 614.480469 576.261719 Z M 614.480469 576.261719 " fill-opacity="1" fill-rule="nonzero"/><path fill="#000000" d="M 136.351562 533.441406 L 106.050781 563.730469 L 146.417969 604.089844 L 176.71875 573.796875 L 211.085938 608.15625 L 254.335938 455.84375 L 102.003906 499.082031 Z M 146.417969 510.636719 L 220.574219 489.597656 L 199.527344 563.710938 L 176.71875 540.925781 L 146.417969 571.21875 L 138.929688 563.730469 L 169.253906 533.441406 Z M 146.417969 510.636719 " fill-opacity="1" fill-rule="nonzero"/><path fill="#000000" d="M 264.332031 429.429688 L 301.78125 391.976562 L 318.226562 408.414062 L 280.777344 445.863281 Z M 264.332031 429.429688 " fill-opacity="1" fill-rule="nonzero"/><path fill="#000000" d="M 209.851562 360.136719 L 233.105469 360.136719 L 233.105469 413.070312 L 209.851562 413.070312 Z M 209.851562 360.136719 " fill-opacity="1" fill-rule="nonzero"/><path fill="#000000" d="M 296.632812 476.554688 L 349.582031 476.554688 L 349.582031 499.804688 L 296.632812 499.804688 Z M 296.632812 476.554688 " fill-opacity="1" fill-rule="nonzero"/><g clip-path="url(#5c55456b12)"><path fill="#000000" d="M 56.242188 125.503906 L 56.242188 686.753906 L 753.835938 686.753906 L 753.835938 125.503906 Z M 730.582031 148.753906 L 730.582031 255.011719 L 79.496094 255.011719 L 79.496094 148.753906 Z M 79.496094 663.484375 L 79.496094 278.261719 L 730.582031 278.261719 L 730.582031 663.484375 Z M 79.496094 663.484375 " fill-opacity="1" fill-rule="nonzero"/></g><path fill="#000000" d="M 659.078125 234.488281 L 673.425781 220.121094 L 687.796875 234.488281 L 704.234375 218.050781 L 689.886719 203.683594 L 704.234375 189.339844 L 687.796875 172.90625 L 673.425781 187.25 L 659.078125 172.90625 L 642.636719 189.339844 L 656.984375 203.683594 L 642.636719 218.050781 Z M 659.078125 234.488281 " fill-opacity="1" fill-rule="nonzero"/><path fill="#000000" d="M 566.761719 191.921875 L 614.710938 191.921875 L 614.710938 215.167969 L 566.761719 215.167969 Z M 566.761719 191.921875 " fill-opacity="1" fill-rule="nonzero"/><path fill="#000000" d="M 132.957031 238.507812 C 152.253906 238.507812 167.949219 222.816406 167.949219 203.546875 C 167.949219 184.273438 152.253906 168.558594 132.957031 168.558594 C 113.679688 168.558594 97.984375 184.25 97.984375 203.523438 C 97.984375 222.792969 113.679688 238.507812 132.957031 238.507812 Z M 132.957031 191.804688 C 139.417969 191.804688 144.699219 197.058594 144.699219 203.523438 C 144.699219 209.984375 139.417969 215.261719 132.957031 215.261719 C 126.492188 215.261719 121.234375 210.007812 121.234375 203.546875 C 121.234375 197.082031 126.492188 191.804688 132.957031 191.804688 Z M 132.957031 191.804688 " fill-opacity="1" fill-rule="nonzero"/><path fill="#000000" d="M 236.035156 238.507812 C 255.3125 238.507812 271.007812 222.816406 271.007812 203.546875 C 271.007812 184.273438 255.335938 168.558594 236.035156 168.558594 C 216.734375 168.558594 201.039062 184.25 201.039062 203.523438 C 201.039062 222.792969 216.734375 238.507812 236.035156 238.507812 Z M 236.035156 191.804688 C 242.5 191.804688 247.753906 197.058594 247.753906 203.523438 C 247.753906 209.984375 242.523438 215.261719 236.035156 215.261719 C 229.546875 215.261719 224.316406 210.007812 224.316406 203.546875 C 224.316406 197.082031 229.570312 191.804688 236.035156 191.804688 Z M 236.035156 191.804688 " fill-opacity="1" fill-rule="nonzero"/></svg>