<svg xmlns="http://www.w3.org/2000/svg" xmlns:xlink="http://www.w3.org/1999/xlink" width="1080" zoomAndPan="magnify" viewBox="0 0 810 809.999993" height="1080" preserveAspectRatio="xMidYMid meet" version="1.0"><defs><filter x="0%" y="0%" width="100%" height="100%" id="db96942abc"><feColorMatrix values="0 0 0 0 1 0 0 0 0 1 0 0 0 0 1 0 0 0 1 0" color-interpolation-filters="sRGB"/></filter><clipPath id="a1f3702fb1"><path d="M 747 527 L 759.769531 527 L 759.769531 540 L 747 540 Z M 747 527 " clip-rule="nonzero"/></clipPath><clipPath id="ecf27f8b6e"><path d="M 747 544 L 759.769531 544 L 759.769531 557 L 747 557 Z M 747 544 " clip-rule="nonzero"/></clipPath><mask id="496c69ca67"><g filter="url(#db96942abc)"><rect x="-81" width="972" fill="#000000" y="-80.999999" height="971.999992" fill-opacity="0.1"/></g></mask><clipPath id="7754840dce"><rect x="0" width="110" y="0" height="159"/></clipPath><clipPath id="386c548457"><path d="M 50.269531 229 L 67 229 L 67 246 L 50.269531 246 Z M 50.269531 229 " clip-rule="nonzero"/></clipPath><clipPath id="fbad35e5b2"><path d="M 425 81 L 457 81 L 457 144 L 425 144 Z M 425 81 " clip-rule="nonzero"/></clipPath></defs><path fill="#e5e0fc" d="M 206.375 324.003906 C 175.140625 321.230469 142.277344 335.035156 124.789062 361.007812 C 107.296875 386.980469 107.570312 424.582031 127.613281 448.601562 C 144.722656 469.085938 173.457031 478.867188 186.496094 502.179688 C 201.976562 529.78125 189.375 564.070312 190.351562 595.695312 C 191.980469 648.511719 234.785156 694.210938 285.136719 710.078125 C 335.492188 725.945312 391.058594 716.164062 439.347656 694.753906 C 470.796875 680.789062 502.898438 658.183594 509.199219 624.332031 C 511.535156 611.78125 510.015625 598.792969 511.265625 586.078125 C 512.515625 573.363281 517.511719 559.777344 528.648438 553.527344 C 543.421875 545.214844 562.378906 553.257812 574.601562 564.941406 C 586.824219 576.625 595.621094 591.835938 609.039062 602.164062 C 638.042969 624.496094 683.019531 616.671875 708.929688 590.804688 C 734.839844 564.941406 743.75 525.761719 740.597656 489.246094 C 738.207031 461.695312 726.582031 431.375 700.726562 421.648438 C 692.199219 418.441406 682.585938 417.683594 675.144531 412.464844 C 663.683594 404.421875 661.019531 388.285156 663.195312 374.429688 C 665.3125 360.574219 671.125 347.476562 672.699219 333.566406 C 676.339844 301.289062 653.417969 268.089844 621.964844 260.046875 C 596.273438 253.472656 567.972656 262.164062 543.097656 252.980469 C 518.488281 243.90625 503.0625 219.671875 491.765625 195.980469 C 480.464844 172.289062 470.636719 146.695312 450.917969 129.414062 C 431.90625 112.734375 404.582031 105.996094 380.03125 111.917969 C 355.425781 117.839844 334.1875 136.261719 324.898438 159.792969 C 316.207031 181.796875 317.671875 206.359375 320.714844 229.832031 C 325.277344 265.152344 336.683594 321.394531 301.8125 346.445312 C 289.046875 355.628906 275.089844 352.585938 261.996094 345.683594 C 243.421875 336.066406 227.992188 325.90625 206.375 324.003906 Z M 206.375 324.003906 " fill-opacity="1" fill-rule="nonzero"/><path fill="#000000" d="M 262.8125 155.933594 L 151.296875 155.933594 C 142.550781 155.933594 135.378906 163.105469 135.378906 171.855469 L 135.378906 267.109375 C 135.378906 275.804688 142.550781 282.921875 151.296875 282.921875 L 262.8125 282.921875 C 271.503906 282.921875 278.617188 275.75 278.617188 267.109375 L 278.617188 171.855469 C 278.617188 163.105469 271.503906 155.933594 262.8125 155.933594 Z M 254.9375 167.289062 C 259.0625 167.289062 262.324219 170.550781 262.324219 174.625 C 262.324219 178.648438 259.0625 182.015625 254.9375 182.015625 C 250.917969 182.015625 247.601562 178.648438 247.601562 174.625 C 247.601562 170.550781 250.863281 167.289062 254.9375 167.289062 Z M 235 167.289062 C 239.128906 167.289062 242.386719 170.550781 242.386719 174.625 C 242.386719 178.648438 239.128906 182.015625 235 182.015625 C 230.980469 182.015625 227.667969 178.648438 227.667969 174.625 C 227.667969 170.550781 230.925781 167.289062 235 167.289062 Z M 215.066406 167.289062 C 219.085938 167.289062 222.453125 170.550781 222.453125 174.625 C 222.453125 178.648438 219.085938 182.015625 215.066406 182.015625 C 211.046875 182.015625 207.734375 178.648438 207.734375 174.625 C 207.734375 170.550781 210.992188 167.289062 215.066406 167.289062 Z M 273.675781 267.109375 C 273.675781 273.085938 268.789062 277.976562 262.8125 277.976562 L 151.296875 277.976562 C 145.210938 277.976562 140.433594 273.085938 140.433594 267.109375 L 140.433594 193.808594 L 160.257812 193.808594 C 160.855469 193.808594 161.453125 193.535156 161.941406 193.15625 L 168.242188 187.613281 L 182.691406 187.613281 L 188.015625 193.101562 C 188.449219 193.535156 189.101562 193.863281 189.808594 193.863281 L 273.675781 193.863281 Z M 273.675781 267.109375 " fill-opacity="0.1" fill-rule="nonzero"/><path fill="#6644a8" d="M 254.773438 147.511719 L 143.203125 147.511719 C 134.457031 147.511719 127.289062 154.683594 127.289062 163.433594 L 127.289062 258.6875 C 127.289062 267.382812 134.457031 274.5 143.203125 274.5 L 254.71875 274.5 C 263.410156 274.5 270.527344 267.328125 270.527344 258.6875 L 270.527344 163.433594 C 270.578125 154.683594 263.410156 147.511719 254.773438 147.511719 Z M 246.84375 158.867188 C 250.96875 158.867188 254.230469 162.128906 254.230469 166.203125 C 254.230469 170.277344 250.972656 173.59375 246.84375 173.59375 C 242.824219 173.59375 239.507812 170.222656 239.507812 166.203125 C 239.507812 162.183594 242.824219 158.867188 246.84375 158.867188 Z M 226.90625 158.867188 C 231.035156 158.867188 234.292969 162.128906 234.292969 166.203125 C 234.292969 170.277344 231.035156 173.59375 226.90625 173.59375 C 222.886719 173.59375 219.574219 170.222656 219.574219 166.203125 C 219.574219 162.183594 222.886719 158.867188 226.90625 158.867188 Z M 206.972656 158.867188 C 210.992188 158.867188 214.359375 162.128906 214.359375 166.203125 C 214.359375 170.277344 210.992188 173.59375 206.972656 173.59375 C 202.953125 173.59375 199.640625 170.222656 199.640625 166.203125 C 199.640625 162.183594 202.953125 158.867188 206.972656 158.867188 Z M 265.582031 258.6875 C 265.582031 264.664062 260.695312 269.554688 254.71875 269.554688 L 143.203125 269.554688 C 137.117188 269.554688 132.339844 264.664062 132.339844 258.6875 L 132.339844 185.382812 L 152.164062 185.382812 C 152.761719 185.382812 153.359375 185.113281 153.847656 184.734375 L 160.148438 179.191406 L 174.597656 179.191406 L 179.921875 184.679688 C 180.355469 185.113281 181.007812 185.4375 181.714844 185.4375 L 265.582031 185.4375 Z M 265.582031 258.6875 " fill-opacity="1" fill-rule="nonzero"/><path fill="#6644a8" d="M 593.070312 351.445312 C 592.363281 351.445312 591.65625 351.171875 591.167969 350.628906 C 590.082031 349.542969 590.082031 347.855469 591.167969 346.769531 L 616.804688 321.121094 C 617.890625 320.035156 619.578125 320.035156 620.664062 321.121094 C 621.75 322.210938 621.75 323.894531 620.664062 324.980469 L 595.023438 350.628906 C 594.480469 351.171875 593.773438 351.445312 593.070312 351.445312 Z M 593.070312 351.445312 " fill-opacity="1" fill-rule="nonzero"/><path fill="#6644a8" d="M 618.761719 351.445312 C 618.054688 351.445312 617.347656 351.171875 616.859375 350.628906 L 591.222656 324.980469 C 590.136719 323.894531 590.136719 322.210938 591.222656 321.121094 C 592.308594 320.035156 593.992188 320.035156 595.078125 321.121094 L 620.71875 346.769531 C 621.804688 347.855469 621.804688 349.542969 620.71875 350.628906 C 620.121094 351.171875 619.414062 351.445312 618.761719 351.445312 Z M 618.761719 351.445312 " fill-opacity="1" fill-rule="nonzero"/><path fill="#6644a8" d="M 470.796875 237.496094 C 462.160156 237.496094 455.152344 230.484375 455.152344 221.847656 C 455.152344 213.207031 462.160156 206.140625 470.796875 206.140625 C 479.433594 206.140625 486.496094 213.207031 486.496094 221.847656 C 486.550781 230.429688 479.488281 237.496094 470.796875 237.496094 Z M 470.796875 211.523438 C 465.148438 211.523438 460.585938 216.140625 460.585938 221.792969 C 460.585938 227.441406 465.148438 232.007812 470.796875 232.007812 C 476.445312 232.007812 481.0625 227.441406 481.0625 221.792969 C 481.117188 216.140625 476.5 211.523438 470.796875 211.523438 Z M 470.796875 211.523438 " fill-opacity="1" fill-rule="nonzero"/><path fill="#6644a8" d="M 341.355469 267.980469 C 334.621094 267.980469 329.136719 262.492188 329.136719 255.753906 C 329.136719 249.015625 334.621094 243.527344 341.355469 243.527344 C 348.09375 243.527344 353.578125 249.015625 353.578125 255.753906 C 353.632812 262.546875 348.148438 267.980469 341.355469 267.980469 Z M 341.355469 247.820312 C 336.957031 247.820312 333.371094 251.40625 333.371094 255.808594 C 333.371094 260.207031 336.957031 263.796875 341.355469 263.796875 C 345.757812 263.796875 349.339844 260.207031 349.339844 255.808594 C 349.394531 251.40625 345.8125 247.820312 341.355469 247.820312 Z M 341.355469 247.820312 " fill-opacity="1" fill-rule="nonzero"/><path fill="#6644a8" d="M 552.003906 145.933594 C 543.367188 145.933594 536.359375 138.925781 536.359375 130.285156 C 536.359375 121.644531 543.367188 114.582031 552.003906 114.582031 C 560.640625 114.582031 567.703125 121.644531 567.703125 130.285156 C 567.703125 138.925781 560.640625 145.933594 552.003906 145.933594 Z M 552.003906 119.960938 C 546.355469 119.960938 541.792969 124.578125 541.792969 130.230469 C 541.792969 135.882812 546.355469 140.445312 552.003906 140.445312 C 557.652344 140.445312 562.269531 135.882812 562.269531 130.230469 C 562.269531 124.578125 557.652344 119.960938 552.003906 119.960938 Z M 552.003906 119.960938 " fill-opacity="1" fill-rule="nonzero"/><path fill="#6644a8" d="M 342.824219 171.691406 C 342.28125 171.691406 341.792969 171.472656 341.410156 171.09375 L 334.023438 163.703125 C 333.210938 162.886719 333.210938 161.636719 334.023438 160.824219 C 334.839844 160.007812 336.089844 160.007812 336.902344 160.824219 L 344.289062 168.214844 C 345.105469 169.027344 345.105469 170.277344 344.289062 171.09375 C 343.855469 171.527344 343.367188 171.691406 342.824219 171.691406 Z M 342.824219 171.691406 " fill-opacity="1" fill-rule="nonzero"/><path fill="#6644a8" d="M 359.664062 154.847656 C 359.117188 154.847656 358.628906 154.628906 358.25 154.25 L 350.863281 146.859375 C 350.046875 146.042969 350.046875 144.792969 350.863281 143.980469 C 351.675781 143.164062 352.925781 143.164062 353.742188 143.980469 L 361.128906 151.367188 C 361.945312 152.183594 361.945312 153.433594 361.128906 154.25 C 360.695312 154.683594 360.207031 154.847656 359.664062 154.847656 Z M 359.664062 154.847656 " fill-opacity="1" fill-rule="nonzero"/><path fill="#6644a8" d="M 335.4375 154.847656 C 334.894531 154.847656 334.402344 154.628906 334.023438 154.25 C 333.210938 153.433594 333.210938 152.183594 334.023438 151.367188 L 341.410156 143.980469 C 342.226562 143.164062 343.476562 143.164062 344.289062 143.980469 C 345.105469 144.792969 345.105469 146.042969 344.289062 146.859375 L 336.902344 154.25 C 336.46875 154.683594 335.980469 154.847656 335.4375 154.847656 Z M 335.4375 154.847656 " fill-opacity="1" fill-rule="nonzero"/><path fill="#6644a8" d="M 352.273438 171.691406 C 351.730469 171.691406 351.242188 171.472656 350.863281 171.09375 C 350.046875 170.277344 350.046875 169.027344 350.863281 168.214844 L 358.25 160.824219 C 359.066406 160.007812 360.3125 160.007812 361.128906 160.824219 C 361.945312 161.636719 361.945312 162.886719 361.128906 163.703125 L 353.742188 171.09375 C 353.308594 171.527344 352.816406 171.691406 352.273438 171.691406 Z M 352.273438 171.691406 " fill-opacity="1" fill-rule="nonzero"/><path fill="#6644a8" d="M 707.136719 225.703125 C 706.59375 225.703125 706.105469 225.488281 705.726562 225.105469 L 698.339844 217.714844 C 697.523438 216.902344 697.523438 215.652344 698.339844 214.835938 C 699.152344 214.019531 700.402344 214.019531 701.21875 214.835938 L 708.605469 222.226562 C 709.417969 223.042969 709.417969 224.292969 708.605469 225.105469 C 708.171875 225.488281 707.679688 225.703125 707.136719 225.703125 Z M 707.136719 225.703125 " fill-opacity="1" fill-rule="nonzero"/><path fill="#6644a8" d="M 723.976562 208.859375 C 723.433594 208.859375 722.945312 208.640625 722.566406 208.261719 L 715.175781 200.871094 C 714.363281 200.054688 714.363281 198.804688 715.175781 197.992188 C 715.992188 197.175781 717.242188 197.175781 718.054688 197.992188 L 725.445312 205.382812 C 726.257812 206.195312 726.257812 207.445312 725.445312 208.261719 C 725.007812 208.640625 724.464844 208.859375 723.976562 208.859375 Z M 723.976562 208.859375 " fill-opacity="1" fill-rule="nonzero"/><path fill="#6644a8" d="M 699.75 208.859375 C 699.207031 208.859375 698.71875 208.640625 698.339844 208.261719 C 697.523438 207.445312 697.523438 206.195312 698.339844 205.382812 L 705.726562 197.992188 C 706.539062 197.175781 707.789062 197.175781 708.605469 197.992188 C 709.417969 198.804688 709.417969 200.054688 708.605469 200.871094 L 701.21875 208.261719 C 700.78125 208.640625 700.292969 208.859375 699.75 208.859375 Z M 699.75 208.859375 " fill-opacity="1" fill-rule="nonzero"/><path fill="#6644a8" d="M 716.589844 225.703125 C 716.046875 225.703125 715.558594 225.488281 715.175781 225.105469 C 714.363281 224.292969 714.363281 223.042969 715.175781 222.226562 L 722.5625 214.835938 C 723.378906 214.019531 724.628906 214.019531 725.441406 214.835938 C 726.257812 215.652344 726.257812 216.902344 725.441406 217.714844 L 718.054688 225.105469 C 717.621094 225.488281 717.078125 225.703125 716.589844 225.703125 Z M 716.589844 225.703125 " fill-opacity="1" fill-rule="nonzero"/><path fill="#6644a8" d="M 740.21875 556.246094 C 739.675781 556.246094 739.1875 556.027344 738.804688 555.648438 L 731.417969 548.257812 C 730.605469 547.441406 730.605469 546.195312 731.417969 545.378906 C 732.234375 544.5625 733.484375 544.5625 734.296875 545.378906 L 741.683594 552.769531 C 742.5 553.582031 742.5 554.832031 741.683594 555.648438 C 741.25 556.027344 740.707031 556.246094 740.21875 556.246094 Z M 740.21875 556.246094 " fill-opacity="1" fill-rule="nonzero"/><g clip-path="url(#a1f3702fb1)"><path fill="#6644a8" d="M 757.058594 539.402344 C 756.511719 539.402344 756.023438 539.183594 755.644531 538.804688 L 748.257812 531.414062 C 747.441406 530.597656 747.441406 529.347656 748.257812 528.535156 C 749.070312 527.71875 750.320312 527.71875 751.136719 528.535156 L 758.523438 535.921875 C 759.339844 536.738281 759.339844 537.988281 758.523438 538.804688 C 758.089844 539.183594 757.546875 539.402344 757.058594 539.402344 Z M 757.058594 539.402344 " fill-opacity="1" fill-rule="nonzero"/></g><path fill="#6644a8" d="M 732.832031 539.402344 C 732.289062 539.402344 731.796875 539.183594 731.417969 538.804688 C 730.605469 537.988281 730.605469 536.738281 731.417969 535.921875 L 738.804688 528.535156 C 739.621094 527.71875 740.871094 527.71875 741.683594 528.535156 C 742.5 529.347656 742.5 530.597656 741.683594 531.414062 L 734.296875 538.804688 C 733.863281 539.183594 733.320312 539.402344 732.832031 539.402344 Z M 732.832031 539.402344 " fill-opacity="1" fill-rule="nonzero"/><g clip-path="url(#ecf27f8b6e)"><path fill="#6644a8" d="M 749.613281 556.246094 C 749.070312 556.246094 748.582031 556.027344 748.203125 555.648438 C 747.386719 554.832031 747.386719 553.582031 748.203125 552.769531 L 755.589844 545.378906 C 756.40625 544.5625 757.65625 544.5625 758.46875 545.378906 C 759.285156 546.195312 759.285156 547.441406 758.46875 548.257812 L 751.082031 555.648438 C 750.703125 556.027344 750.160156 556.246094 749.613281 556.246094 Z M 749.613281 556.246094 " fill-opacity="1" fill-rule="nonzero"/></g><path fill="#6644a8" d="M 254.828125 519.949219 C 254.285156 519.949219 253.796875 519.730469 253.414062 519.351562 L 246.027344 511.960938 C 245.214844 511.144531 245.214844 509.894531 246.027344 509.082031 C 246.84375 508.265625 248.09375 508.265625 248.90625 509.082031 L 256.292969 516.46875 C 257.109375 517.285156 257.109375 518.535156 256.292969 519.351562 C 255.859375 519.730469 255.316406 519.949219 254.828125 519.949219 Z M 254.828125 519.949219 " fill-opacity="1" fill-rule="nonzero"/><path fill="#6644a8" d="M 271.613281 503.101562 C 271.070312 503.101562 270.578125 502.886719 270.199219 502.503906 L 262.8125 495.113281 C 261.996094 494.300781 261.996094 493.050781 262.8125 492.234375 C 263.625 491.421875 264.875 491.421875 265.691406 492.234375 L 273.078125 499.625 C 273.894531 500.441406 273.894531 501.691406 273.078125 502.503906 C 272.699219 502.941406 272.15625 503.101562 271.613281 503.101562 Z M 271.613281 503.101562 " fill-opacity="1" fill-rule="nonzero"/><path fill="#6644a8" d="M 247.441406 503.101562 C 246.898438 503.101562 246.40625 502.886719 246.027344 502.503906 C 245.214844 501.691406 245.214844 500.441406 246.027344 499.625 L 253.414062 492.234375 C 254.230469 491.421875 255.480469 491.421875 256.292969 492.234375 C 257.109375 493.050781 257.109375 494.300781 256.292969 495.113281 L 248.90625 502.503906 C 248.472656 502.941406 247.929688 503.101562 247.441406 503.101562 Z M 247.441406 503.101562 " fill-opacity="1" fill-rule="nonzero"/><path fill="#6644a8" d="M 264.222656 519.949219 C 263.679688 519.949219 263.191406 519.730469 262.8125 519.351562 C 261.996094 518.535156 261.996094 517.285156 262.8125 516.46875 L 270.199219 509.082031 C 271.015625 508.265625 272.261719 508.265625 273.078125 509.082031 C 273.894531 509.894531 273.894531 511.144531 273.078125 511.960938 L 265.691406 519.351562 C 265.3125 519.730469 264.769531 519.949219 264.222656 519.949219 Z M 264.222656 519.949219 " fill-opacity="1" fill-rule="nonzero"/><g mask="url(#496c69ca67)"><g transform="matrix(1, 0, 0, 1, 616, 366)"><g clip-path="url(#7754840dce)"><path fill="#000000" d="M 36.980469 56.898438 L 58.765625 56.898438 L 58.765625 48.042969 L 70.441406 48.042969 L 47.898438 25.707031 L 25.359375 48.042969 L 36.980469 48.042969 Z M 36.980469 56.898438 " fill-opacity="1" fill-rule="nonzero"/><path fill="#000000" d="M 108.03125 26.199219 L 85.488281 3.863281 L 62.945312 26.199219 L 74.570312 26.199219 L 74.570312 73.796875 C 69.898438 70.484375 64.523438 68.039062 58.765625 66.734375 L 58.765625 60.105469 L 36.980469 60.105469 L 36.980469 67.386719 C 18.515625 72.710938 4.878906 89.71875 4.878906 109.933594 C 4.878906 134.222656 24.761719 154.003906 49.148438 154.003906 C 73.484375 154.003906 93.3125 134.222656 93.3125 109.933594 C 93.3125 105.695312 92.660156 101.621094 91.574219 97.761719 L 96.351562 26.199219 Z M 49.148438 146.449219 C 28.890625 146.449219 12.429688 130.039062 12.429688 109.933594 C 12.429688 89.664062 28.890625 73.199219 49.148438 73.199219 C 69.355469 73.199219 85.761719 89.664062 85.761719 109.933594 C 85.816406 130.09375 69.355469 146.449219 49.148438 146.449219 Z M 49.148438 146.449219 " fill-opacity="1" fill-rule="nonzero"/><path fill="#000000" d="M 57.242188 98.957031 L 62.839844 98.957031 C 62.839844 92.492188 58.273438 87.058594 52.246094 85.644531 L 52.246094 81.949219 L 46.054688 81.949219 L 46.054688 85.644531 C 39.96875 87.058594 35.460938 92.492188 35.460938 98.957031 C 35.460938 105.421875 40.023438 110.855469 46.054688 112.269531 L 46.054688 128.246094 C 43.121094 127.050781 41.054688 124.117188 41.054688 120.746094 L 35.460938 120.746094 C 35.460938 127.214844 40.023438 132.648438 46.054688 134.058594 L 46.054688 137.753906 L 52.246094 137.753906 L 52.246094 134.058594 C 58.328125 132.648438 62.839844 127.214844 62.839844 120.746094 C 62.839844 114.28125 58.273438 108.847656 52.246094 107.433594 L 52.246094 91.457031 C 55.179688 92.707031 57.242188 95.589844 57.242188 98.957031 Z M 41 98.957031 C 41 95.589844 43.066406 92.707031 46 91.457031 L 46 106.402344 C 43.066406 105.207031 41 102.324219 41 98.957031 Z M 57.242188 120.746094 C 57.242188 124.117188 55.179688 126.996094 52.246094 128.191406 L 52.246094 113.25 C 55.179688 114.496094 57.242188 117.378906 57.242188 120.746094 Z M 57.242188 120.746094 " fill-opacity="1" fill-rule="nonzero"/></g></g></g><path fill="#6644a8" d="M 679 406.597656 L 667.375 406.597656 L 667.375 415.507812 L 645.539062 415.507812 L 645.539062 406.597656 L 633.917969 406.597656 L 656.457031 384.265625 Z M 679 406.597656 " fill-opacity="1" fill-rule="nonzero"/><path fill="#6644a8" d="M 645.539062 418.714844 L 667.324219 418.714844 L 667.324219 426.59375 L 645.539062 426.59375 Z M 645.539062 418.714844 " fill-opacity="1" fill-rule="nonzero"/><path fill="#6644a8" d="M 716.589844 384.753906 L 704.964844 384.753906 L 699.804688 461.804688 L 683.183594 440.503906 L 683.183594 384.753906 L 671.503906 384.753906 L 694.046875 362.421875 Z M 716.589844 384.753906 " fill-opacity="1" fill-rule="nonzero"/><path fill="#6644a8" d="M 657.761719 512.558594 C 633.375 512.558594 613.492188 492.777344 613.492188 468.488281 C 613.492188 444.089844 633.375 424.203125 657.761719 424.203125 C 682.097656 424.203125 701.921875 444.089844 701.921875 468.488281 C 701.921875 492.832031 682.097656 512.558594 657.761719 512.558594 Z M 657.761719 431.757812 C 637.5 431.757812 621.042969 448.222656 621.042969 468.488281 C 621.042969 488.648438 637.5 505.003906 657.761719 505.003906 C 677.96875 505.003906 694.375 488.59375 694.375 468.488281 C 694.375 448.273438 677.96875 431.757812 657.761719 431.757812 Z M 657.761719 431.757812 " fill-opacity="1" fill-rule="nonzero"/><path fill="#6644a8" d="M 657.652344 492.996094 C 650.101562 492.996094 643.964844 486.855469 643.964844 479.300781 L 649.558594 479.300781 C 649.558594 483.757812 653.199219 487.398438 657.652344 487.398438 C 662.164062 487.398438 665.800781 483.757812 665.800781 479.300781 C 665.800781 474.847656 662.164062 471.207031 657.652344 471.207031 C 650.101562 471.207031 643.964844 465.066406 643.964844 457.511719 C 643.964844 449.960938 650.101562 443.820312 657.652344 443.820312 C 665.257812 443.820312 671.394531 449.960938 671.394531 457.511719 L 665.800781 457.511719 C 665.800781 453.058594 662.164062 449.417969 657.652344 449.417969 C 653.199219 449.417969 649.558594 453.058594 649.558594 457.511719 C 649.558594 461.96875 653.199219 465.609375 657.652344 465.609375 C 665.257812 465.609375 671.394531 471.75 671.394531 479.300781 C 671.394531 486.855469 665.257812 492.996094 657.652344 492.996094 Z M 657.652344 492.996094 " fill-opacity="1" fill-rule="nonzero"/><path fill="#6644a8" d="M 654.558594 440.503906 L 660.75 440.503906 L 660.75 496.308594 L 654.558594 496.308594 Z M 654.558594 440.503906 " fill-opacity="1" fill-rule="nonzero"/><path fill="#000000" d="M 641.574219 205 L 549.777344 205 C 548.582031 205 547.660156 205.925781 547.660156 207.121094 L 547.660156 262.980469 C 547.660156 264.175781 548.582031 265.097656 549.777344 265.097656 L 560.261719 265.097656 L 560.261719 288.03125 C 560.261719 288.953125 560.804688 289.714844 561.617188 289.988281 C 561.890625 290.148438 562.105469 290.148438 562.324219 290.148438 C 562.976562 290.148438 563.574219 289.878906 564.007812 289.390625 L 582.910156 265.152344 L 641.628906 265.152344 C 642.769531 265.152344 643.640625 264.230469 643.640625 263.035156 L 643.640625 207.121094 C 643.585938 205.925781 642.660156 205 641.574219 205 Z M 571.125 241.027344 C 566.128906 241.027344 562.054688 237.113281 562.054688 232.222656 C 562.054688 227.441406 566.128906 223.53125 571.125 223.53125 C 576.066406 223.53125 580.085938 227.441406 580.085938 232.222656 C 580.085938 237.113281 576.011719 241.027344 571.125 241.027344 Z M 596.328125 241.027344 C 591.332031 241.027344 587.257812 237.113281 587.257812 232.222656 C 587.257812 227.441406 591.332031 223.53125 596.328125 223.53125 C 601.269531 223.53125 605.34375 227.441406 605.34375 232.222656 C 605.34375 237.113281 601.269531 241.027344 596.328125 241.027344 Z M 620.226562 241.027344 C 615.230469 241.027344 611.210938 237.113281 611.210938 232.222656 C 611.210938 227.441406 615.230469 223.53125 620.226562 223.53125 C 625.226562 223.53125 629.191406 227.441406 629.191406 232.222656 C 629.191406 237.113281 625.226562 241.027344 620.226562 241.027344 Z M 620.226562 241.027344 " fill-opacity="0.1" fill-rule="nonzero"/><path fill="#6644a8" d="M 634.566406 197.9375 L 542.769531 197.9375 C 541.574219 197.9375 540.652344 198.859375 540.652344 200.054688 L 540.652344 255.917969 C 540.652344 257.113281 541.574219 258.035156 542.769531 258.035156 L 553.253906 258.035156 L 553.253906 280.964844 C 553.253906 281.890625 553.796875 282.652344 554.613281 282.921875 C 554.882812 283.085938 555.101562 283.085938 555.316406 283.085938 C 555.96875 283.085938 556.566406 282.8125 557 282.324219 L 575.90625 258.089844 L 634.621094 258.089844 C 635.761719 258.089844 636.632812 257.164062 636.632812 255.96875 L 636.632812 200.054688 C 636.578125 198.859375 635.65625 197.9375 634.566406 197.9375 Z M 564.117188 234.019531 C 559.121094 234.019531 555.046875 230.105469 555.046875 225.214844 C 555.046875 220.433594 559.121094 216.519531 564.117188 216.519531 C 569.058594 216.519531 573.078125 220.433594 573.078125 225.214844 C 573.078125 230.050781 569.003906 234.019531 564.117188 234.019531 Z M 589.320312 234.019531 C 584.324219 234.019531 580.25 230.105469 580.25 225.214844 C 580.25 220.433594 584.324219 216.519531 589.320312 216.519531 C 594.265625 216.519531 598.339844 220.433594 598.339844 225.214844 C 598.285156 230.050781 594.210938 234.019531 589.320312 234.019531 Z M 613.167969 234.019531 C 608.167969 234.019531 604.148438 230.105469 604.148438 225.214844 C 604.148438 220.433594 608.167969 216.519531 613.167969 216.519531 C 618.164062 216.519531 622.128906 220.433594 622.128906 225.214844 C 622.183594 230.050781 618.164062 234.019531 613.167969 234.019531 Z M 613.167969 234.019531 " fill-opacity="1" fill-rule="nonzero"/><path fill="#000000" d="M 123.484375 321.449219 C 124.082031 320.796875 124.082031 319.765625 123.484375 319.167969 C 122.832031 318.515625 121.800781 318.515625 121.203125 319.167969 C 115.773438 324.65625 106.808594 324.65625 101.378906 319.167969 C 100.726562 318.515625 99.695312 318.515625 99.097656 319.167969 C 98.5 319.820312 98.5 320.851562 99.097656 321.449219 C 102.464844 324.816406 106.863281 326.503906 111.316406 326.503906 C 115.773438 326.503906 120.117188 324.816406 123.484375 321.449219 Z M 123.484375 321.449219 " fill-opacity="0.1" fill-rule="nonzero"/><path fill="#000000" d="M 147.386719 343.128906 C 127.449219 363.070312 95.023438 363.070312 75.140625 343.128906 C 74.488281 342.476562 73.457031 342.476562 72.859375 343.128906 C 72.207031 343.78125 72.207031 344.8125 72.859375 345.410156 C 83.453125 356.007812 97.359375 361.277344 111.261719 361.277344 C 125.167969 361.277344 139.074219 356.007812 149.667969 345.410156 C 150.265625 344.761719 150.265625 343.726562 149.667969 343.128906 C 149.015625 342.476562 148.035156 342.476562 147.386719 343.128906 Z M 147.386719 343.128906 " fill-opacity="0.1" fill-rule="nonzero"/><path fill="#000000" d="M 84.808594 331.175781 C 84.210938 331.828125 84.210938 332.859375 84.808594 333.457031 C 92.089844 340.738281 101.703125 344.378906 111.261719 344.378906 C 120.824219 344.378906 130.4375 340.738281 137.714844 333.457031 C 138.367188 332.804688 138.367188 331.828125 137.714844 331.175781 C 137.066406 330.523438 136.085938 330.523438 135.433594 331.175781 C 122.074219 344.542969 100.398438 344.542969 87.089844 331.175781 C 86.441406 330.523438 85.40625 330.523438 84.808594 331.175781 Z M 84.808594 331.175781 " fill-opacity="0.1" fill-rule="nonzero"/><path fill="#6644a8" d="M 120.933594 317.589844 C 121.53125 316.9375 121.53125 315.90625 120.933594 315.308594 C 120.28125 314.65625 119.25 314.65625 118.652344 315.308594 C 113.21875 320.796875 104.257812 320.796875 98.824219 315.308594 C 98.171875 314.65625 97.140625 314.65625 96.542969 315.308594 C 95.945312 315.960938 95.945312 316.992188 96.542969 317.589844 C 99.910156 320.960938 104.3125 322.644531 108.765625 322.644531 C 113.164062 322.589844 117.5625 320.90625 120.933594 317.589844 Z M 120.933594 317.589844 " fill-opacity="1" fill-rule="nonzero"/><path fill="#6644a8" d="M 144.886719 339.21875 C 124.953125 359.160156 92.523438 359.160156 72.644531 339.21875 C 71.992188 338.566406 70.960938 338.566406 70.363281 339.21875 C 69.710938 339.871094 69.710938 340.902344 70.363281 341.5 C 80.953125 352.09375 94.859375 357.367188 108.765625 357.367188 C 122.671875 357.367188 136.574219 352.09375 147.167969 341.5 C 147.765625 340.847656 147.765625 339.816406 147.167969 339.21875 C 146.515625 338.566406 145.484375 338.566406 144.886719 339.21875 Z M 144.886719 339.21875 " fill-opacity="1" fill-rule="nonzero"/><path fill="#6644a8" d="M 82.3125 327.261719 C 81.714844 327.914062 81.714844 328.949219 82.3125 329.546875 C 89.589844 336.828125 99.203125 340.46875 108.765625 340.46875 C 118.324219 340.46875 127.9375 336.828125 135.21875 329.546875 C 135.871094 328.894531 135.871094 327.914062 135.21875 327.261719 C 134.566406 326.609375 133.589844 326.609375 132.9375 327.261719 C 119.574219 340.628906 97.902344 340.628906 84.59375 327.261719 C 83.941406 326.609375 82.910156 326.609375 82.3125 327.261719 Z M 82.3125 327.261719 " fill-opacity="1" fill-rule="nonzero"/><path fill="#6644a8" d="M 77.261719 396.761719 C 77.261719 397.082031 77.230469 397.402344 77.167969 397.714844 C 77.101562 398.03125 77.011719 398.335938 76.886719 398.632812 C 76.765625 398.929688 76.613281 399.210938 76.4375 399.480469 C 76.257812 399.746094 76.054688 399.992188 75.828125 400.21875 C 75.601562 400.445312 75.355469 400.648438 75.085938 400.828125 C 74.820312 401.007812 74.539062 401.15625 74.242188 401.28125 C 73.945312 401.402344 73.640625 401.496094 73.324219 401.558594 C 73.011719 401.621094 72.691406 401.652344 72.371094 401.652344 C 72.050781 401.652344 71.730469 401.621094 71.417969 401.558594 C 71.101562 401.496094 70.796875 401.402344 70.5 401.28125 C 70.203125 401.15625 69.921875 401.007812 69.65625 400.828125 C 69.386719 400.648438 69.140625 400.445312 68.914062 400.21875 C 68.6875 399.992188 68.484375 399.746094 68.304688 399.480469 C 68.128906 399.210938 67.976562 398.929688 67.855469 398.632812 C 67.730469 398.335938 67.640625 398.03125 67.578125 397.714844 C 67.515625 397.402344 67.484375 397.082031 67.484375 396.761719 C 67.484375 396.441406 67.515625 396.121094 67.578125 395.808594 C 67.640625 395.492188 67.730469 395.1875 67.855469 394.890625 C 67.976562 394.59375 68.128906 394.3125 68.304688 394.046875 C 68.484375 393.777344 68.6875 393.53125 68.914062 393.304688 C 69.140625 393.078125 69.386719 392.875 69.65625 392.695312 C 69.921875 392.515625 70.203125 392.367188 70.5 392.242188 C 70.796875 392.121094 71.101562 392.027344 71.417969 391.964844 C 71.730469 391.902344 72.050781 391.871094 72.371094 391.871094 C 72.691406 391.871094 73.011719 391.902344 73.324219 391.964844 C 73.640625 392.027344 73.945312 392.121094 74.242188 392.242188 C 74.539062 392.367188 74.820312 392.515625 75.085938 392.695312 C 75.355469 392.875 75.601562 393.078125 75.828125 393.304688 C 76.054688 393.53125 76.257812 393.777344 76.4375 394.046875 C 76.613281 394.3125 76.765625 394.59375 76.886719 394.890625 C 77.011719 395.1875 77.101562 395.492188 77.167969 395.808594 C 77.230469 396.121094 77.261719 396.441406 77.261719 396.761719 Z M 77.261719 396.761719 " fill-opacity="1" fill-rule="nonzero"/><path fill="#6644a8" d="M 77.261719 415.238281 C 77.261719 415.558594 77.230469 415.875 77.167969 416.191406 C 77.101562 416.507812 77.011719 416.8125 76.886719 417.109375 C 76.765625 417.40625 76.613281 417.6875 76.4375 417.953125 C 76.257812 418.222656 76.054688 418.46875 75.828125 418.695312 C 75.601562 418.921875 75.355469 419.125 75.085938 419.304688 C 74.820312 419.480469 74.539062 419.632812 74.242188 419.753906 C 73.945312 419.878906 73.640625 419.972656 73.324219 420.035156 C 73.011719 420.097656 72.691406 420.128906 72.371094 420.128906 C 72.050781 420.128906 71.730469 420.097656 71.417969 420.035156 C 71.101562 419.972656 70.796875 419.878906 70.5 419.753906 C 70.203125 419.632812 69.921875 419.480469 69.65625 419.304688 C 69.386719 419.125 69.140625 418.921875 68.914062 418.695312 C 68.6875 418.46875 68.484375 418.222656 68.304688 417.953125 C 68.128906 417.6875 67.976562 417.40625 67.855469 417.109375 C 67.730469 416.8125 67.640625 416.507812 67.578125 416.191406 C 67.515625 415.875 67.484375 415.558594 67.484375 415.238281 C 67.484375 414.917969 67.515625 414.597656 67.578125 414.28125 C 67.640625 413.96875 67.730469 413.664062 67.855469 413.367188 C 67.976562 413.070312 68.128906 412.789062 68.304688 412.519531 C 68.484375 412.253906 68.6875 412.007812 68.914062 411.777344 C 69.140625 411.550781 69.386719 411.347656 69.65625 411.171875 C 69.921875 410.992188 70.203125 410.84375 70.5 410.71875 C 70.796875 410.597656 71.101562 410.503906 71.417969 410.441406 C 71.730469 410.378906 72.050781 410.347656 72.371094 410.347656 C 72.691406 410.347656 73.011719 410.378906 73.324219 410.441406 C 73.640625 410.503906 73.945312 410.597656 74.242188 410.71875 C 74.539062 410.84375 74.820312 410.992188 75.085938 411.171875 C 75.355469 411.347656 75.601562 411.550781 75.828125 411.777344 C 76.054688 412.007812 76.257812 412.253906 76.4375 412.519531 C 76.613281 412.789062 76.765625 413.070312 76.886719 413.367188 C 77.011719 413.664062 77.101562 413.96875 77.167969 414.28125 C 77.230469 414.597656 77.261719 414.917969 77.261719 415.238281 Z M 77.261719 415.238281 " fill-opacity="1" fill-rule="nonzero"/><path fill="#6644a8" d="M 77.261719 433.710938 C 77.261719 434.035156 77.230469 434.351562 77.167969 434.667969 C 77.101562 434.980469 77.011719 435.289062 76.886719 435.582031 C 76.765625 435.878906 76.613281 436.164062 76.4375 436.429688 C 76.257812 436.695312 76.054688 436.941406 75.828125 437.171875 C 75.601562 437.398438 75.355469 437.601562 75.085938 437.777344 C 74.820312 437.957031 74.539062 438.109375 74.242188 438.230469 C 73.945312 438.351562 73.640625 438.445312 73.324219 438.507812 C 73.011719 438.570312 72.691406 438.601562 72.371094 438.601562 C 72.050781 438.601562 71.730469 438.570312 71.417969 438.507812 C 71.101562 438.445312 70.796875 438.351562 70.5 438.230469 C 70.203125 438.109375 69.921875 437.957031 69.65625 437.777344 C 69.386719 437.601562 69.140625 437.398438 68.914062 437.171875 C 68.6875 436.941406 68.484375 436.695312 68.304688 436.429688 C 68.128906 436.164062 67.976562 435.878906 67.855469 435.582031 C 67.730469 435.289062 67.640625 434.980469 67.578125 434.667969 C 67.515625 434.351562 67.484375 434.035156 67.484375 433.710938 C 67.484375 433.390625 67.515625 433.074219 67.578125 432.757812 C 67.640625 432.441406 67.730469 432.136719 67.855469 431.839844 C 67.976562 431.542969 68.128906 431.261719 68.304688 430.996094 C 68.484375 430.726562 68.6875 430.480469 68.914062 430.253906 C 69.140625 430.027344 69.386719 429.824219 69.65625 429.644531 C 69.921875 429.46875 70.203125 429.316406 70.5 429.195312 C 70.796875 429.070312 71.101562 428.976562 71.417969 428.914062 C 71.730469 428.851562 72.050781 428.820312 72.371094 428.820312 C 72.691406 428.820312 73.011719 428.851562 73.324219 428.914062 C 73.640625 428.976562 73.945312 429.070312 74.242188 429.195312 C 74.539062 429.316406 74.820312 429.46875 75.085938 429.644531 C 75.355469 429.824219 75.601562 430.027344 75.828125 430.253906 C 76.054688 430.480469 76.257812 430.726562 76.4375 430.996094 C 76.613281 431.261719 76.765625 431.542969 76.886719 431.839844 C 77.011719 432.136719 77.101562 432.441406 77.167969 432.757812 C 77.230469 433.074219 77.261719 433.390625 77.261719 433.710938 Z M 77.261719 433.710938 " fill-opacity="1" fill-rule="nonzero"/><path fill="#6644a8" d="M 696.21875 272.925781 C 696.21875 273.246094 696.1875 273.5625 696.125 273.878906 C 696.0625 274.191406 695.96875 274.5 695.847656 274.796875 C 695.726562 275.09375 695.574219 275.375 695.394531 275.640625 C 695.21875 275.90625 695.015625 276.15625 694.789062 276.382812 C 694.5625 276.609375 694.3125 276.8125 694.046875 276.992188 C 693.78125 277.167969 693.5 277.320312 693.203125 277.441406 C 692.90625 277.566406 692.601562 277.65625 692.285156 277.71875 C 691.96875 277.785156 691.652344 277.816406 691.332031 277.816406 C 691.011719 277.816406 690.691406 277.785156 690.378906 277.71875 C 690.0625 277.65625 689.757812 277.566406 689.460938 277.441406 C 689.164062 277.320312 688.882812 277.167969 688.613281 276.992188 C 688.347656 276.8125 688.101562 276.609375 687.875 276.382812 C 687.648438 276.15625 687.445312 275.90625 687.265625 275.640625 C 687.089844 275.375 686.9375 275.09375 686.816406 274.796875 C 686.691406 274.5 686.597656 274.191406 686.535156 273.878906 C 686.472656 273.5625 686.441406 273.246094 686.441406 272.925781 C 686.441406 272.601562 686.472656 272.285156 686.535156 271.96875 C 686.597656 271.65625 686.691406 271.347656 686.816406 271.050781 C 686.9375 270.757812 687.089844 270.472656 687.265625 270.207031 C 687.445312 269.941406 687.648438 269.691406 687.875 269.464844 C 688.101562 269.238281 688.347656 269.035156 688.613281 268.859375 C 688.882812 268.679688 689.164062 268.527344 689.460938 268.40625 C 689.757812 268.28125 690.0625 268.191406 690.378906 268.128906 C 690.691406 268.066406 691.011719 268.035156 691.332031 268.035156 C 691.652344 268.035156 691.96875 268.066406 692.285156 268.128906 C 692.601562 268.191406 692.90625 268.28125 693.203125 268.40625 C 693.5 268.527344 693.78125 268.679688 694.046875 268.859375 C 694.3125 269.035156 694.5625 269.238281 694.789062 269.464844 C 695.015625 269.691406 695.21875 269.941406 695.394531 270.207031 C 695.574219 270.472656 695.726562 270.757812 695.847656 271.050781 C 695.96875 271.347656 696.0625 271.65625 696.125 271.96875 C 696.1875 272.285156 696.21875 272.601562 696.21875 272.925781 Z M 696.21875 272.925781 " fill-opacity="1" fill-rule="nonzero"/><path fill="#6644a8" d="M 696.21875 291.398438 C 696.21875 291.71875 696.1875 292.039062 696.125 292.351562 C 696.0625 292.667969 695.96875 292.972656 695.847656 293.269531 C 695.726562 293.566406 695.574219 293.847656 695.394531 294.117188 C 695.21875 294.382812 695.015625 294.628906 694.789062 294.855469 C 694.5625 295.085938 694.3125 295.289062 694.046875 295.464844 C 693.78125 295.644531 693.5 295.792969 693.203125 295.917969 C 692.90625 296.039062 692.601562 296.132812 692.285156 296.195312 C 691.96875 296.257812 691.652344 296.289062 691.332031 296.289062 C 691.011719 296.289062 690.691406 296.257812 690.378906 296.195312 C 690.0625 296.132812 689.757812 296.039062 689.460938 295.917969 C 689.164062 295.792969 688.882812 295.644531 688.613281 295.464844 C 688.347656 295.289062 688.101562 295.085938 687.875 294.855469 C 687.648438 294.628906 687.445312 294.382812 687.265625 294.117188 C 687.089844 293.847656 686.9375 293.566406 686.816406 293.269531 C 686.691406 292.972656 686.597656 292.667969 686.535156 292.351562 C 686.472656 292.039062 686.441406 291.71875 686.441406 291.398438 C 686.441406 291.078125 686.472656 290.761719 686.535156 290.445312 C 686.597656 290.128906 686.691406 289.824219 686.816406 289.527344 C 686.9375 289.230469 687.089844 288.949219 687.265625 288.683594 C 687.445312 288.414062 687.648438 288.167969 687.875 287.941406 C 688.101562 287.714844 688.347656 287.511719 688.613281 287.332031 C 688.882812 287.15625 689.164062 287.003906 689.460938 286.882812 C 689.757812 286.757812 690.0625 286.664062 690.378906 286.601562 C 690.691406 286.539062 691.011719 286.507812 691.332031 286.507812 C 691.652344 286.507812 691.96875 286.539062 692.285156 286.601562 C 692.601562 286.664062 692.90625 286.757812 693.203125 286.882812 C 693.5 287.003906 693.78125 287.15625 694.046875 287.332031 C 694.3125 287.511719 694.5625 287.714844 694.789062 287.941406 C 695.015625 288.167969 695.21875 288.414062 695.394531 288.683594 C 695.574219 288.949219 695.726562 289.230469 695.847656 289.527344 C 695.96875 289.824219 696.0625 290.128906 696.125 290.445312 C 696.1875 290.761719 696.21875 291.078125 696.21875 291.398438 Z M 696.21875 291.398438 " fill-opacity="1" fill-rule="nonzero"/><path fill="#6644a8" d="M 696.21875 309.875 C 696.21875 310.195312 696.1875 310.511719 696.125 310.828125 C 696.0625 311.144531 695.96875 311.449219 695.847656 311.746094 C 695.726562 312.042969 695.574219 312.324219 695.394531 312.589844 C 695.21875 312.859375 695.015625 313.105469 694.789062 313.332031 C 694.5625 313.558594 694.3125 313.761719 694.046875 313.941406 C 693.78125 314.117188 693.5 314.269531 693.203125 314.394531 C 692.90625 314.515625 692.601562 314.609375 692.285156 314.671875 C 691.96875 314.734375 691.652344 314.765625 691.332031 314.765625 C 691.011719 314.765625 690.691406 314.734375 690.378906 314.671875 C 690.0625 314.609375 689.757812 314.515625 689.460938 314.394531 C 689.164062 314.269531 688.882812 314.117188 688.613281 313.941406 C 688.347656 313.761719 688.101562 313.558594 687.875 313.332031 C 687.648438 313.105469 687.445312 312.859375 687.265625 312.589844 C 687.089844 312.324219 686.9375 312.042969 686.816406 311.746094 C 686.691406 311.449219 686.597656 311.144531 686.535156 310.828125 C 686.472656 310.511719 686.441406 310.195312 686.441406 309.875 C 686.441406 309.554688 686.472656 309.234375 686.535156 308.921875 C 686.597656 308.605469 686.691406 308.300781 686.816406 308.003906 C 686.9375 307.707031 687.089844 307.425781 687.265625 307.15625 C 687.445312 306.890625 687.648438 306.644531 687.875 306.417969 C 688.101562 306.1875 688.347656 305.988281 688.613281 305.808594 C 688.882812 305.628906 689.164062 305.480469 689.460938 305.355469 C 689.757812 305.234375 690.0625 305.140625 690.378906 305.078125 C 690.691406 305.015625 691.011719 304.984375 691.332031 304.984375 C 691.652344 304.984375 691.96875 305.015625 692.285156 305.078125 C 692.601562 305.140625 692.90625 305.234375 693.203125 305.355469 C 693.5 305.480469 693.78125 305.628906 694.046875 305.808594 C 694.3125 305.988281 694.5625 306.1875 694.789062 306.417969 C 695.015625 306.644531 695.21875 306.890625 695.394531 307.15625 C 695.574219 307.425781 695.726562 307.707031 695.847656 308.003906 C 695.96875 308.300781 696.0625 308.605469 696.125 308.921875 C 696.1875 309.234375 696.21875 309.554688 696.21875 309.875 Z M 696.21875 309.875 " fill-opacity="1" fill-rule="nonzero"/><path fill="#6644a8" d="M 114.792969 243.199219 C 113.328125 243.199219 112.078125 242.003906 112.078125 240.484375 L 112.078125 181.527344 C 112.078125 180.058594 113.273438 178.808594 114.792969 178.808594 C 116.316406 178.808594 117.511719 180.003906 117.511719 181.527344 L 117.511719 240.539062 C 117.511719 242.003906 116.261719 243.199219 114.792969 243.199219 Z M 114.792969 243.199219 " fill-opacity="1" fill-rule="nonzero"/><path fill="#6644a8" d="M 747.769531 501.527344 C 746.519531 501.527344 745.542969 500.496094 745.542969 499.246094 L 745.542969 450.066406 C 745.542969 448.820312 746.574219 447.839844 747.769531 447.839844 C 749.015625 447.839844 750.050781 448.871094 750.050781 450.066406 L 750.050781 499.246094 C 750.050781 500.496094 749.019531 501.527344 747.769531 501.527344 Z M 747.769531 501.527344 " fill-opacity="1" fill-rule="nonzero"/><path fill="#6644a8" d="M 747.769531 444.472656 C 746.519531 444.472656 745.542969 443.4375 745.542969 442.1875 L 745.542969 424.3125 C 745.542969 423.0625 746.574219 422.082031 747.769531 422.082031 C 749.015625 422.082031 750.050781 423.117188 750.050781 424.3125 L 750.050781 442.1875 C 750.050781 443.4375 749.019531 444.472656 747.769531 444.472656 Z M 747.769531 444.472656 " fill-opacity="1" fill-rule="nonzero"/><path fill="#6644a8" d="M 488.941406 283.03125 C 488.941406 283.351562 488.910156 283.671875 488.847656 283.984375 C 488.785156 284.300781 488.691406 284.605469 488.566406 284.902344 C 488.445312 285.199219 488.292969 285.480469 488.117188 285.75 C 487.9375 286.015625 487.734375 286.261719 487.507812 286.488281 C 487.28125 286.714844 487.035156 286.917969 486.765625 287.097656 C 486.5 287.277344 486.21875 287.425781 485.921875 287.550781 C 485.625 287.671875 485.320312 287.765625 485.003906 287.828125 C 484.691406 287.890625 484.371094 287.921875 484.050781 287.921875 C 483.730469 287.921875 483.414062 287.890625 483.097656 287.828125 C 482.78125 287.765625 482.476562 287.671875 482.179688 287.550781 C 481.882812 287.425781 481.601562 287.277344 481.335938 287.097656 C 481.070312 286.917969 480.820312 286.714844 480.59375 286.488281 C 480.367188 286.261719 480.164062 286.015625 479.988281 285.75 C 479.808594 285.480469 479.65625 285.199219 479.535156 284.902344 C 479.414062 284.605469 479.320312 284.300781 479.257812 283.984375 C 479.195312 283.671875 479.164062 283.351562 479.164062 283.03125 C 479.164062 282.710938 479.195312 282.390625 479.257812 282.078125 C 479.320312 281.761719 479.414062 281.457031 479.535156 281.160156 C 479.65625 280.863281 479.808594 280.582031 479.988281 280.3125 C 480.164062 280.046875 480.367188 279.800781 480.59375 279.574219 C 480.820312 279.347656 481.070312 279.144531 481.335938 278.964844 C 481.601562 278.785156 481.882812 278.636719 482.179688 278.511719 C 482.476562 278.390625 482.78125 278.296875 483.097656 278.234375 C 483.414062 278.171875 483.730469 278.140625 484.050781 278.140625 C 484.371094 278.140625 484.691406 278.171875 485.003906 278.234375 C 485.320312 278.296875 485.625 278.390625 485.921875 278.511719 C 486.21875 278.636719 486.5 278.785156 486.765625 278.964844 C 487.035156 279.144531 487.28125 279.347656 487.507812 279.574219 C 487.734375 279.800781 487.9375 280.046875 488.117188 280.3125 C 488.292969 280.582031 488.445312 280.863281 488.566406 281.160156 C 488.691406 281.457031 488.785156 281.761719 488.847656 282.078125 C 488.910156 282.390625 488.941406 282.710938 488.941406 283.03125 Z M 488.941406 283.03125 " fill-opacity="1" fill-rule="nonzero"/><path fill="#6644a8" d="M 470.472656 283.03125 C 470.472656 283.351562 470.441406 283.671875 470.378906 283.984375 C 470.316406 284.300781 470.222656 284.605469 470.101562 284.902344 C 469.976562 285.199219 469.828125 285.480469 469.648438 285.75 C 469.46875 286.015625 469.265625 286.261719 469.039062 286.488281 C 468.8125 286.714844 468.566406 286.917969 468.300781 287.097656 C 468.03125 287.277344 467.75 287.425781 467.453125 287.550781 C 467.15625 287.671875 466.851562 287.765625 466.535156 287.828125 C 466.222656 287.890625 465.902344 287.921875 465.582031 287.921875 C 465.261719 287.921875 464.945312 287.890625 464.628906 287.828125 C 464.316406 287.765625 464.007812 287.671875 463.710938 287.550781 C 463.414062 287.425781 463.132812 287.277344 462.867188 287.097656 C 462.601562 286.917969 462.351562 286.714844 462.125 286.488281 C 461.898438 286.261719 461.695312 286.015625 461.519531 285.75 C 461.339844 285.480469 461.191406 285.199219 461.066406 284.902344 C 460.945312 284.605469 460.851562 284.300781 460.789062 283.984375 C 460.726562 283.671875 460.695312 283.351562 460.695312 283.03125 C 460.695312 282.710938 460.726562 282.390625 460.789062 282.078125 C 460.851562 281.761719 460.945312 281.457031 461.066406 281.160156 C 461.191406 280.863281 461.339844 280.582031 461.519531 280.3125 C 461.695312 280.046875 461.898438 279.800781 462.125 279.574219 C 462.351562 279.347656 462.601562 279.144531 462.867188 278.964844 C 463.132812 278.785156 463.414062 278.636719 463.710938 278.511719 C 464.007812 278.390625 464.316406 278.296875 464.628906 278.234375 C 464.945312 278.171875 465.261719 278.140625 465.582031 278.140625 C 465.902344 278.140625 466.222656 278.171875 466.535156 278.234375 C 466.851562 278.296875 467.15625 278.390625 467.453125 278.511719 C 467.75 278.636719 468.03125 278.785156 468.300781 278.964844 C 468.566406 279.144531 468.8125 279.347656 469.039062 279.574219 C 469.265625 279.800781 469.46875 280.046875 469.648438 280.3125 C 469.828125 280.582031 469.976562 280.863281 470.101562 281.160156 C 470.222656 281.457031 470.316406 281.761719 470.378906 282.078125 C 470.441406 282.390625 470.472656 282.710938 470.472656 283.03125 Z M 470.472656 283.03125 " fill-opacity="1" fill-rule="nonzero"/><path fill="#6644a8" d="M 452.003906 283.03125 C 452.003906 283.351562 451.972656 283.671875 451.910156 283.984375 C 451.847656 284.300781 451.753906 284.605469 451.632812 284.902344 C 451.507812 285.199219 451.359375 285.480469 451.179688 285.75 C 451 286.015625 450.800781 286.261719 450.570312 286.488281 C 450.34375 286.714844 450.097656 286.917969 449.832031 287.097656 C 449.5625 287.277344 449.28125 287.425781 448.984375 287.550781 C 448.6875 287.671875 448.382812 287.765625 448.070312 287.828125 C 447.753906 287.890625 447.4375 287.921875 447.113281 287.921875 C 446.792969 287.921875 446.476562 287.890625 446.160156 287.828125 C 445.847656 287.765625 445.539062 287.671875 445.246094 287.550781 C 444.949219 287.425781 444.664062 287.277344 444.398438 287.097656 C 444.132812 286.917969 443.886719 286.714844 443.660156 286.488281 C 443.429688 286.261719 443.230469 286.015625 443.050781 285.75 C 442.871094 285.480469 442.722656 285.199219 442.597656 284.902344 C 442.476562 284.605469 442.382812 284.300781 442.320312 283.984375 C 442.257812 283.671875 442.226562 283.351562 442.226562 283.03125 C 442.226562 282.710938 442.257812 282.390625 442.320312 282.078125 C 442.382812 281.761719 442.476562 281.457031 442.597656 281.160156 C 442.722656 280.863281 442.871094 280.582031 443.050781 280.3125 C 443.230469 280.046875 443.429688 279.800781 443.65625 279.574219 C 443.886719 279.347656 444.132812 279.144531 444.398438 278.964844 C 444.664062 278.785156 444.949219 278.636719 445.246094 278.511719 C 445.539062 278.390625 445.847656 278.296875 446.160156 278.234375 C 446.476562 278.171875 446.792969 278.140625 447.113281 278.140625 C 447.4375 278.140625 447.753906 278.171875 448.070312 278.234375 C 448.382812 278.296875 448.6875 278.390625 448.984375 278.511719 C 449.28125 278.636719 449.5625 278.785156 449.832031 278.964844 C 450.097656 279.144531 450.34375 279.347656 450.570312 279.574219 C 450.796875 279.800781 451 280.046875 451.179688 280.3125 C 451.359375 280.582031 451.507812 280.863281 451.632812 281.160156 C 451.753906 281.457031 451.847656 281.761719 451.910156 282.078125 C 451.972656 282.390625 452.003906 282.710938 452.003906 283.03125 Z M 452.003906 283.03125 " fill-opacity="1" fill-rule="nonzero"/><path fill="#6644a8" d="M 383.78125 208.859375 C 383.78125 209.179688 383.75 209.5 383.6875 209.8125 C 383.621094 210.128906 383.53125 210.433594 383.40625 210.730469 C 383.285156 211.027344 383.132812 211.308594 382.957031 211.574219 C 382.777344 211.84375 382.574219 212.089844 382.347656 212.316406 C 382.121094 212.542969 381.875 212.746094 381.605469 212.925781 C 381.339844 213.105469 381.058594 213.253906 380.761719 213.378906 C 380.464844 213.5 380.160156 213.59375 379.84375 213.65625 C 379.53125 213.71875 379.210938 213.75 378.890625 213.75 C 378.570312 213.75 378.253906 213.71875 377.9375 213.65625 C 377.621094 213.59375 377.316406 213.5 377.019531 213.378906 C 376.722656 213.253906 376.441406 213.105469 376.175781 212.925781 C 375.90625 212.746094 375.660156 212.542969 375.433594 212.316406 C 375.207031 212.089844 375.003906 211.84375 374.824219 211.574219 C 374.648438 211.308594 374.496094 211.027344 374.375 210.730469 C 374.25 210.433594 374.160156 210.128906 374.097656 209.8125 C 374.035156 209.496094 374.003906 209.179688 374.003906 208.859375 C 374.003906 208.539062 374.035156 208.21875 374.097656 207.90625 C 374.160156 207.589844 374.25 207.285156 374.375 206.988281 C 374.496094 206.691406 374.648438 206.410156 374.824219 206.140625 C 375.003906 205.875 375.207031 205.628906 375.433594 205.402344 C 375.660156 205.171875 375.90625 204.972656 376.175781 204.792969 C 376.441406 204.613281 376.722656 204.464844 377.019531 204.339844 C 377.316406 204.21875 377.621094 204.125 377.9375 204.0625 C 378.25 204 378.570312 203.96875 378.890625 203.96875 C 379.210938 203.96875 379.53125 204 379.84375 204.0625 C 380.160156 204.125 380.464844 204.21875 380.761719 204.339844 C 381.058594 204.464844 381.339844 204.613281 381.605469 204.792969 C 381.875 204.972656 382.121094 205.171875 382.347656 205.402344 C 382.574219 205.628906 382.777344 205.875 382.957031 206.140625 C 383.132812 206.410156 383.285156 206.691406 383.40625 206.988281 C 383.53125 207.285156 383.621094 207.589844 383.6875 207.90625 C 383.75 208.21875 383.78125 208.539062 383.78125 208.859375 Z M 383.78125 208.859375 " fill-opacity="1" fill-rule="nonzero"/><path fill="#6644a8" d="M 365.3125 208.859375 C 365.3125 209.179688 365.28125 209.5 365.21875 209.8125 C 365.15625 210.128906 365.0625 210.433594 364.9375 210.730469 C 364.816406 211.027344 364.664062 211.308594 364.488281 211.574219 C 364.308594 211.84375 364.105469 212.089844 363.878906 212.316406 C 363.652344 212.542969 363.40625 212.746094 363.136719 212.925781 C 362.871094 213.105469 362.589844 213.253906 362.292969 213.378906 C 361.996094 213.5 361.691406 213.59375 361.375 213.65625 C 361.0625 213.71875 360.742188 213.75 360.421875 213.75 C 360.101562 213.75 359.785156 213.71875 359.46875 213.65625 C 359.152344 213.59375 358.847656 213.5 358.550781 213.378906 C 358.253906 213.253906 357.972656 213.105469 357.707031 212.925781 C 357.441406 212.746094 357.191406 212.542969 356.964844 212.316406 C 356.738281 212.089844 356.535156 211.84375 356.359375 211.574219 C 356.179688 211.308594 356.027344 211.027344 355.90625 210.730469 C 355.78125 210.433594 355.691406 210.128906 355.628906 209.8125 C 355.566406 209.496094 355.535156 209.179688 355.535156 208.859375 C 355.535156 208.539062 355.566406 208.21875 355.628906 207.90625 C 355.691406 207.589844 355.78125 207.285156 355.90625 206.988281 C 356.027344 206.691406 356.179688 206.410156 356.359375 206.140625 C 356.535156 205.875 356.738281 205.628906 356.964844 205.402344 C 357.191406 205.171875 357.441406 204.972656 357.707031 204.792969 C 357.972656 204.613281 358.253906 204.464844 358.550781 204.339844 C 358.847656 204.21875 359.152344 204.125 359.46875 204.0625 C 359.785156 204 360.101562 203.96875 360.421875 203.96875 C 360.742188 203.96875 361.0625 204 361.375 204.0625 C 361.691406 204.125 361.996094 204.21875 362.292969 204.339844 C 362.589844 204.464844 362.871094 204.613281 363.136719 204.792969 C 363.40625 204.972656 363.652344 205.171875 363.878906 205.402344 C 364.105469 205.628906 364.308594 205.875 364.488281 206.140625 C 364.664062 206.410156 364.816406 206.691406 364.9375 206.988281 C 365.0625 207.285156 365.15625 207.589844 365.21875 207.90625 C 365.28125 208.21875 365.3125 208.539062 365.3125 208.859375 Z M 365.3125 208.859375 " fill-opacity="1" fill-rule="nonzero"/><path fill="#6644a8" d="M 346.84375 208.859375 C 346.84375 209.179688 346.8125 209.5 346.75 209.8125 C 346.6875 210.128906 346.59375 210.433594 346.472656 210.730469 C 346.347656 211.027344 346.199219 211.308594 346.019531 211.574219 C 345.839844 211.84375 345.636719 212.089844 345.410156 212.316406 C 345.183594 212.542969 344.9375 212.746094 344.671875 212.925781 C 344.402344 213.105469 344.121094 213.253906 343.824219 213.378906 C 343.527344 213.5 343.222656 213.59375 342.90625 213.65625 C 342.59375 213.71875 342.273438 213.75 341.953125 213.75 C 341.632812 213.75 341.316406 213.71875 341 213.65625 C 340.6875 213.59375 340.378906 213.5 340.082031 213.378906 C 339.785156 213.253906 339.503906 213.105469 339.238281 212.925781 C 338.972656 212.746094 338.722656 212.542969 338.496094 212.316406 C 338.269531 212.089844 338.066406 211.84375 337.890625 211.574219 C 337.710938 211.308594 337.558594 211.027344 337.4375 210.730469 C 337.316406 210.433594 337.222656 210.128906 337.160156 209.8125 C 337.097656 209.496094 337.066406 209.179688 337.066406 208.859375 C 337.066406 208.539062 337.097656 208.21875 337.160156 207.90625 C 337.222656 207.589844 337.316406 207.285156 337.4375 206.988281 C 337.558594 206.691406 337.710938 206.410156 337.890625 206.140625 C 338.066406 205.875 338.269531 205.628906 338.496094 205.402344 C 338.722656 205.171875 338.972656 204.972656 339.238281 204.792969 C 339.503906 204.613281 339.785156 204.464844 340.082031 204.339844 C 340.378906 204.21875 340.6875 204.125 341 204.0625 C 341.316406 204 341.632812 203.96875 341.953125 203.96875 C 342.273438 203.96875 342.59375 204 342.90625 204.0625 C 343.222656 204.125 343.527344 204.21875 343.824219 204.339844 C 344.121094 204.464844 344.402344 204.613281 344.671875 204.792969 C 344.9375 204.972656 345.183594 205.171875 345.410156 205.402344 C 345.636719 205.628906 345.839844 205.875 346.019531 206.140625 C 346.199219 206.410156 346.347656 206.691406 346.472656 206.988281 C 346.59375 207.285156 346.6875 207.589844 346.75 207.90625 C 346.8125 208.21875 346.84375 208.539062 346.84375 208.859375 Z M 346.84375 208.859375 " fill-opacity="1" fill-rule="nonzero"/><path fill="#6644a8" d="M 597.578125 694.210938 C 596.21875 694.210938 595.132812 693.125 595.132812 691.765625 L 595.132812 539.402344 C 595.132812 538.042969 596.21875 536.957031 597.578125 536.957031 C 598.933594 536.957031 600.023438 538.042969 600.023438 539.402344 L 600.023438 691.765625 C 600.023438 693.125 598.933594 694.210938 597.578125 694.210938 Z M 597.578125 694.210938 " fill-opacity="1" fill-rule="nonzero"/><path fill="#6644a8" d="M 622.292969 585.859375 C 620.933594 585.859375 619.847656 584.773438 619.847656 583.414062 L 619.847656 561.082031 C 619.847656 559.722656 620.933594 558.636719 622.292969 558.636719 C 623.648438 558.636719 624.738281 559.722656 624.738281 561.082031 L 624.738281 583.414062 C 624.738281 584.773438 623.648438 585.859375 622.292969 585.859375 Z M 622.292969 585.859375 " fill-opacity="1" fill-rule="nonzero"/><path fill="#6644a8" d="M 622.292969 650.144531 C 620.933594 650.144531 619.847656 649.054688 619.847656 647.699219 L 619.847656 599.011719 C 619.847656 597.652344 620.933594 596.566406 622.292969 596.566406 C 623.648438 596.566406 624.738281 597.652344 624.738281 599.011719 L 624.738281 647.699219 C 624.738281 649.003906 623.648438 650.144531 622.292969 650.144531 Z M 622.292969 650.144531 " fill-opacity="1" fill-rule="nonzero"/><path fill="#6644a8" d="M 597.523438 525.542969 C 592.960938 525.542969 589.265625 521.851562 589.265625 517.285156 C 589.265625 512.722656 592.960938 508.972656 597.523438 508.972656 C 602.085938 508.972656 605.832031 512.722656 605.832031 517.285156 C 605.832031 521.851562 602.140625 525.542969 597.523438 525.542969 Z M 597.523438 525.542969 " fill-opacity="1" fill-rule="nonzero"/><path fill="#6644a8" d="M 622.292969 677.800781 C 617.730469 677.800781 614.035156 674.105469 614.035156 669.542969 C 614.035156 664.976562 617.730469 661.226562 622.292969 661.226562 C 626.855469 661.226562 630.601562 664.976562 630.601562 669.542969 C 630.601562 674.105469 626.855469 677.800781 622.292969 677.800781 Z M 622.292969 677.800781 " fill-opacity="1" fill-rule="nonzero"/><path fill="#000000" d="M 709.039062 602.921875 C 709.582031 602.378906 709.582031 601.511719 709.039062 601.019531 C 708.496094 600.476562 707.625 600.476562 707.136719 601.019531 C 702.519531 605.640625 695.023438 605.640625 690.460938 601.019531 C 689.917969 600.476562 689.050781 600.476562 688.5625 601.019531 C 688.019531 601.566406 688.019531 602.433594 688.5625 602.921875 C 691.386719 605.75 695.132812 607.160156 698.828125 607.160156 C 702.464844 607.160156 706.214844 605.75 709.039062 602.921875 Z M 709.039062 602.921875 " fill-opacity="0.1" fill-rule="nonzero"/><path fill="#000000" d="M 729.191406 621.125 C 712.40625 637.917969 685.140625 637.917969 668.410156 621.125 C 667.867188 620.582031 666.996094 620.582031 666.507812 621.125 C 665.964844 621.667969 665.964844 622.539062 666.507812 623.027344 C 675.414062 631.941406 687.148438 636.394531 698.828125 636.394531 C 710.503906 636.394531 722.238281 631.941406 731.148438 623.027344 C 731.691406 622.484375 731.691406 621.617188 731.148438 621.125 C 730.550781 620.636719 729.679688 620.636719 729.191406 621.125 Z M 729.191406 621.125 " fill-opacity="0.1" fill-rule="nonzero"/><path fill="#000000" d="M 676.503906 611.074219 C 675.960938 611.617188 675.960938 612.488281 676.503906 612.976562 C 682.640625 619.117188 690.734375 622.160156 698.773438 622.160156 C 706.8125 622.160156 714.90625 619.117188 721.042969 612.976562 C 721.585938 612.433594 721.585938 611.5625 721.042969 611.074219 C 720.5 610.53125 719.632812 610.53125 719.140625 611.074219 C 707.898438 622.320312 689.648438 622.320312 678.457031 611.074219 C 677.914062 610.585938 677.046875 610.585938 676.503906 611.074219 Z M 676.503906 611.074219 " fill-opacity="0.1" fill-rule="nonzero"/><path fill="#6644a8" d="M 706.921875 599.664062 C 707.464844 599.121094 707.464844 598.25 706.921875 597.761719 C 706.378906 597.21875 705.507812 597.21875 705.019531 597.761719 C 700.402344 602.378906 692.90625 602.378906 688.34375 597.761719 C 687.800781 597.21875 686.929688 597.21875 686.441406 597.761719 C 685.898438 598.304688 685.898438 599.171875 686.441406 599.664062 C 689.265625 602.488281 693.015625 603.902344 696.707031 603.902344 C 700.347656 603.902344 704.097656 602.488281 706.921875 599.664062 Z M 706.921875 599.664062 " fill-opacity="1" fill-rule="nonzero"/><path fill="#6644a8" d="M 727.074219 617.867188 C 710.289062 634.65625 683.019531 634.65625 666.289062 617.867188 C 665.746094 617.324219 664.878906 617.324219 664.390625 617.867188 C 663.898438 618.410156 663.847656 619.277344 664.390625 619.769531 C 673.296875 628.679688 685.03125 633.136719 696.707031 633.136719 C 708.386719 633.136719 720.121094 628.679688 729.027344 619.769531 C 729.570312 619.222656 729.570312 618.355469 729.027344 617.867188 C 728.429688 617.324219 727.5625 617.324219 727.074219 617.867188 Z M 727.074219 617.867188 " fill-opacity="1" fill-rule="nonzero"/><path fill="#6644a8" d="M 674.382812 607.8125 C 673.839844 608.355469 673.839844 609.226562 674.382812 609.714844 C 680.523438 615.855469 688.617188 618.898438 696.65625 618.898438 C 704.695312 618.898438 712.785156 615.855469 718.925781 609.714844 C 719.46875 609.171875 719.46875 608.300781 718.925781 607.8125 C 718.382812 607.324219 717.511719 607.269531 717.023438 607.8125 C 705.78125 619.0625 687.527344 619.0625 676.339844 607.8125 C 675.796875 607.269531 674.925781 607.269531 674.382812 607.8125 Z M 674.382812 607.8125 " fill-opacity="1" fill-rule="nonzero"/><g clip-path="url(#386c548457)"><path fill="#6644a8" d="M 58.683594 245.753906 C 54.121094 245.753906 50.425781 242.058594 50.425781 237.496094 C 50.425781 232.929688 54.121094 229.179688 58.683594 229.179688 C 63.246094 229.179688 66.992188 232.929688 66.992188 237.496094 C 66.992188 242.058594 63.300781 245.753906 58.683594 245.753906 Z M 58.683594 245.753906 " fill-opacity="1" fill-rule="nonzero"/></g><path fill="#6644a8" d="M 105.613281 140.5 C 99.097656 140.5 93.773438 135.175781 93.773438 128.65625 C 93.773438 122.078125 99.097656 116.753906 105.613281 116.753906 C 112.1875 116.753906 117.511719 122.078125 117.511719 128.65625 C 117.511719 135.175781 112.132812 140.5 105.613281 140.5 Z M 105.613281 140.5 " fill-opacity="1" fill-rule="nonzero"/><path fill="#000000" d="M 258.03125 603.847656 C 256.726562 609.496094 253.796875 613.898438 248.742188 616.996094 C 243.582031 620.148438 238.207031 621.019531 232.394531 619.550781 C 231.632812 619.332031 230.820312 618.84375 230.058594 619.550781 C 229.1875 620.367188 228.917969 619.714844 228.644531 619.007812 C 227.777344 616.886719 226.960938 614.714844 226.09375 612.59375 C 225.605469 611.398438 225.984375 611.074219 227.179688 611.238281 C 229.460938 611.507812 231.742188 611.78125 234.023438 611.996094 C 234.511719 612.050781 235.109375 612.050781 235.109375 612.703125 C 235.054688 613.898438 235.925781 613.628906 236.523438 613.628906 C 240 613.898438 243.039062 612.539062 245.917969 610.800781 C 261.726562 595.914062 239.671875 573.035156 222.128906 593.683594 C 217.183594 599.554688 217.238281 600.53125 222.671875 606.019531 C 225.820312 609.226562 225.820312 609.226562 222.5625 612.269531 C 221.691406 613.085938 221.042969 613.136719 220.0625 612.433594 C 217.726562 610.695312 215.445312 608.898438 213.328125 606.890625 C 212.730469 606.347656 212.242188 606.128906 211.808594 606.128906 C 211.316406 606.074219 210.828125 606.347656 210.285156 606.890625 C 208.167969 608.898438 205.886719 610.695312 203.550781 612.433594 C 202.574219 613.136719 201.921875 613.085938 201.050781 612.269531 C 197.792969 609.226562 197.738281 609.28125 200.941406 606.019531 C 206.375 600.53125 206.429688 599.554688 201.488281 593.683594 C 183.886719 572.980469 161.886719 595.914062 177.695312 610.800781 C 180.574219 612.59375 183.617188 613.898438 187.09375 613.628906 C 187.691406 613.574219 188.558594 613.898438 188.503906 612.703125 C 188.449219 612.050781 189.101562 612.050781 189.589844 611.996094 C 191.871094 611.726562 194.152344 611.507812 196.433594 611.238281 C 197.628906 611.074219 198.011719 611.453125 197.519531 612.59375 C 196.652344 614.714844 195.835938 616.832031 194.96875 619.007812 C 194.695312 619.714844 194.425781 620.367188 193.554688 619.550781 C 192.796875 618.84375 191.980469 619.332031 191.21875 619.550781 C 185.40625 621.019531 180.03125 620.203125 174.871094 616.996094 C 169.820312 613.898438 166.832031 609.496094 165.582031 603.847656 C 161.886719 583.796875 183.777344 571.734375 199.476562 583.6875 C 203.171875 586.402344 206.753906 589.175781 210.070312 592.328125 C 210.773438 592.980469 211.316406 593.304688 211.914062 593.25 C 212.511719 593.304688 213.109375 592.980469 213.761719 592.328125 C 217.074219 589.175781 220.660156 586.351562 224.355469 583.6875 C 239.78125 571.734375 261.726562 583.796875 258.03125 603.847656 Z M 258.03125 603.847656 " fill-opacity="0.1" fill-rule="nonzero"/><path fill="#6644a8" d="M 251.1875 599.390625 C 249.882812 605.042969 246.949219 609.445312 241.898438 612.539062 C 236.738281 615.691406 231.363281 616.5625 225.550781 615.09375 C 224.789062 614.878906 223.972656 614.386719 223.214844 615.09375 C 222.34375 615.910156 222.074219 615.257812 221.800781 614.550781 C 220.933594 612.433594 220.117188 610.257812 219.25 608.140625 C 218.761719 606.945312 219.140625 606.617188 220.335938 606.78125 C 222.617188 607.054688 224.898438 607.324219 227.179688 607.542969 C 227.667969 607.597656 228.265625 607.597656 228.265625 608.25 C 228.210938 609.445312 229.082031 609.171875 229.679688 609.171875 C 233.152344 609.445312 236.195312 608.085938 239.074219 606.347656 C 254.882812 591.457031 232.828125 568.582031 215.285156 589.230469 C 210.339844 595.097656 210.394531 596.078125 215.828125 601.566406 C 218.976562 604.769531 218.976562 604.769531 215.71875 607.8125 C 214.847656 608.628906 214.195312 608.683594 213.21875 607.976562 C 210.882812 606.238281 208.601562 604.445312 206.484375 602.433594 C 205.886719 601.890625 205.398438 601.671875 204.960938 601.671875 C 204.472656 601.617188 203.984375 601.890625 203.441406 602.433594 C 201.324219 604.445312 199.042969 606.238281 196.707031 607.976562 C 195.730469 608.683594 195.078125 608.628906 194.207031 607.8125 C 190.949219 604.769531 190.894531 604.824219 194.097656 601.566406 C 199.53125 596.078125 199.585938 595.097656 194.640625 589.230469 C 177.042969 568.527344 155.042969 591.457031 170.851562 606.347656 C 173.730469 608.140625 176.773438 609.445312 180.246094 609.171875 C 180.84375 609.117188 181.714844 609.445312 181.660156 608.25 C 181.605469 607.597656 182.257812 607.597656 182.746094 607.542969 C 185.027344 607.269531 187.308594 607.054688 189.589844 606.78125 C 190.785156 606.617188 191.164062 607 190.675781 608.140625 C 189.808594 610.257812 188.992188 612.378906 188.125 614.550781 C 187.851562 615.257812 187.582031 615.910156 186.710938 615.09375 C 185.953125 614.386719 185.136719 614.878906 184.375 615.09375 C 178.5625 616.5625 173.1875 615.746094 168.027344 612.539062 C 162.976562 609.445312 159.988281 605.042969 158.738281 599.390625 C 155.042969 579.339844 176.933594 567.277344 192.632812 579.230469 C 196.328125 581.949219 199.910156 584.71875 203.226562 587.871094 C 203.929688 588.523438 204.472656 588.847656 205.070312 588.792969 C 205.667969 588.847656 206.265625 588.523438 206.917969 587.871094 C 210.230469 584.71875 213.816406 581.894531 217.511719 579.230469 C 232.9375 567.277344 254.882812 579.394531 251.1875 599.390625 Z M 251.1875 599.390625 " fill-opacity="1" fill-rule="nonzero"/><path fill="#6644a8" d="M 245.375 669.488281 C 242.386719 669.488281 239.945312 667.042969 239.945312 664.054688 C 239.945312 661.011719 242.386719 658.566406 245.375 658.566406 C 248.417969 658.566406 250.863281 661.011719 250.863281 664.054688 C 250.863281 667.097656 248.363281 669.488281 245.375 669.488281 Z M 245.375 669.488281 " fill-opacity="1" fill-rule="nonzero"/><path fill="#6644a8" d="M 406.972656 113.710938 L 422.347656 133.492188 L 410.882812 133.492188 L 395.566406 113.710938 L 410.882812 93.988281 L 422.347656 93.988281 Z M 406.972656 113.710938 " fill-opacity="1" fill-rule="nonzero"/><path fill="#6644a8" d="M 469.65625 113.710938 L 454.285156 133.492188 L 465.746094 133.492188 L 481.117188 113.710938 L 465.746094 93.988281 L 454.285156 93.988281 Z M 469.65625 113.710938 " fill-opacity="1" fill-rule="nonzero"/><g clip-path="url(#fbad35e5b2)"><path fill="#6644a8" d="M 433.480469 143.378906 L 456.078125 80.890625 L 448.308594 80.890625 L 425.714844 143.378906 Z M 433.480469 143.378906 " fill-opacity="1" fill-rule="nonzero"/></g><path fill="#000000" d="M 531.363281 390.296875 L 531.363281 683.941406 C 531.363281 686.222656 529.570312 688.015625 527.289062 688.015625 L 512.949219 688.015625 L 512.949219 701.492188 L 527.289062 701.492188 C 529.570312 701.492188 531.363281 703.339844 531.363281 705.570312 C 531.363281 707.851562 529.570312 709.644531 527.289062 709.644531 L 312.023438 709.644531 C 309.796875 709.644531 307.949219 707.851562 307.949219 705.570312 C 307.949219 703.339844 309.796875 701.492188 312.023438 701.492188 L 326.363281 701.492188 L 326.363281 688.015625 L 312.023438 688.015625 C 309.796875 688.015625 307.949219 686.222656 307.949219 683.941406 L 307.949219 390.296875 C 307.949219 388.066406 309.796875 386.21875 312.023438 386.21875 L 326.363281 386.21875 L 326.363281 372.746094 L 312.023438 372.746094 C 309.796875 372.746094 307.949219 370.949219 307.949219 368.667969 C 307.949219 366.441406 309.796875 364.59375 312.023438 364.59375 L 527.289062 364.59375 C 529.570312 364.59375 531.363281 366.441406 531.363281 368.667969 C 531.363281 370.949219 529.570312 372.746094 527.289062 372.746094 L 512.949219 372.746094 L 512.949219 386.21875 L 527.289062 386.21875 C 529.570312 386.21875 531.363281 388.066406 531.363281 390.296875 Z M 531.363281 390.296875 " fill-opacity="0.1" fill-rule="nonzero"/><path fill="#f778ac" d="M 352.980469 562.605469 L 368.246094 562.605469 L 368.246094 590.042969 L 352.980469 590.042969 Z M 352.980469 562.605469 " fill-opacity="1" fill-rule="nonzero"/><path fill="#f778ac" d="M 329.242188 407.25 L 344.886719 407.25 L 344.886719 434.691406 L 329.242188 434.691406 Z M 329.242188 407.25 " fill-opacity="1" fill-rule="nonzero"/><path fill="#f778ac" d="M 352.980469 407.25 L 368.246094 407.25 L 368.246094 434.691406 L 352.980469 434.691406 Z M 352.980469 407.25 " fill-opacity="1" fill-rule="nonzero"/><path fill="#f778ac" d="M 329.242188 562.605469 L 344.886719 562.605469 L 344.886719 590.042969 L 329.242188 590.042969 Z M 329.242188 562.605469 " fill-opacity="1" fill-rule="nonzero"/><path fill="#f778ac" d="M 488.398438 562.605469 L 376.390625 562.605469 L 376.390625 590.042969 L 488.398438 590.042969 Z M 398.988281 584.394531 L 395.730469 584.394531 C 393.503906 584.394531 391.65625 582.546875 391.65625 580.316406 C 391.65625 578.089844 393.503906 576.242188 395.730469 576.242188 L 398.988281 576.242188 C 401.214844 576.242188 403.0625 578.089844 403.0625 580.316406 C 403.0625 582.546875 401.214844 584.394531 398.988281 584.394531 Z M 419.359375 584.394531 L 416.097656 584.394531 C 413.871094 584.394531 412.023438 582.546875 412.023438 580.316406 C 412.023438 578.089844 413.871094 576.242188 416.097656 576.242188 L 419.359375 576.242188 C 421.585938 576.242188 423.433594 578.089844 423.433594 580.316406 C 423.433594 582.546875 421.585938 584.394531 419.359375 584.394531 Z M 439.726562 584.394531 L 436.46875 584.394531 C 434.242188 584.394531 432.394531 582.546875 432.394531 580.316406 C 432.394531 578.089844 434.242188 576.242188 436.46875 576.242188 L 439.726562 576.242188 C 441.953125 576.242188 443.800781 578.089844 443.800781 580.316406 C 443.800781 582.546875 441.953125 584.394531 439.726562 584.394531 Z M 460.042969 584.394531 L 456.785156 584.394531 C 454.558594 584.394531 452.710938 582.546875 452.710938 580.316406 C 452.710938 578.089844 454.558594 576.242188 456.785156 576.242188 L 460.042969 576.242188 C 462.269531 576.242188 464.117188 578.089844 464.117188 580.316406 C 464.117188 582.546875 462.324219 584.394531 460.042969 584.394531 Z M 480.414062 584.394531 L 477.152344 584.394531 C 474.925781 584.394531 473.078125 582.546875 473.078125 580.316406 C 473.078125 578.089844 474.925781 576.242188 477.152344 576.242188 L 480.414062 576.242188 C 482.640625 576.242188 484.484375 578.089844 484.484375 580.316406 C 484.484375 582.546875 482.640625 584.394531 480.414062 584.394531 Z M 480.414062 584.394531 " fill-opacity="1" fill-rule="nonzero"/><path fill="#f778ac" d="M 357.542969 463.164062 L 329.242188 463.164062 L 329.242188 534.128906 L 357.542969 534.128906 Z M 347.441406 525.871094 C 347.441406 528.097656 345.59375 529.945312 343.367188 529.945312 C 341.140625 529.945312 339.292969 528.097656 339.292969 525.871094 L 339.292969 524.023438 C 339.292969 521.796875 341.140625 519.949219 343.367188 519.949219 C 345.59375 519.949219 347.441406 521.796875 347.441406 524.023438 Z M 347.441406 473.269531 C 347.441406 475.5 345.59375 477.347656 343.367188 477.347656 C 341.140625 477.347656 339.292969 475.5 339.292969 473.269531 L 339.292969 471.421875 C 339.292969 469.195312 341.140625 467.347656 343.367188 467.347656 C 345.59375 467.347656 347.441406 469.195312 347.441406 471.421875 Z M 347.441406 473.269531 " fill-opacity="1" fill-rule="nonzero"/><path fill="#f778ac" d="M 460.097656 534.128906 L 488.398438 534.128906 L 488.398438 463.164062 L 460.097656 463.164062 Z M 470.144531 471.421875 C 470.144531 469.195312 471.992188 467.347656 474.21875 467.347656 C 476.445312 467.347656 478.292969 469.195312 478.292969 471.421875 L 478.292969 473.269531 C 478.292969 475.5 476.445312 477.347656 474.21875 477.347656 C 471.992188 477.347656 470.144531 475.5 470.144531 473.269531 Z M 470.144531 524.023438 C 470.144531 521.796875 471.992188 519.949219 474.21875 519.949219 C 476.445312 519.949219 478.292969 521.796875 478.292969 524.023438 L 478.292969 525.871094 C 478.292969 528.097656 476.445312 529.945312 474.21875 529.945312 C 471.992188 529.945312 470.144531 528.097656 470.144531 525.871094 Z M 470.144531 524.023438 " fill-opacity="1" fill-rule="nonzero"/><path fill="#f778ac" d="M 488.398438 407.25 L 376.390625 407.25 L 376.390625 434.691406 L 488.398438 434.691406 Z M 398.988281 429.039062 L 395.730469 429.039062 C 393.503906 429.039062 391.65625 427.191406 391.65625 424.964844 C 391.65625 422.734375 393.503906 420.886719 395.730469 420.886719 L 398.988281 420.886719 C 401.214844 420.886719 403.0625 422.734375 403.0625 424.964844 C 403.0625 427.191406 401.214844 429.039062 398.988281 429.039062 Z M 419.359375 429.039062 L 416.097656 429.039062 C 413.871094 429.039062 412.023438 427.191406 412.023438 424.964844 C 412.023438 422.734375 413.871094 420.886719 416.097656 420.886719 L 419.359375 420.886719 C 421.585938 420.886719 423.433594 422.734375 423.433594 424.964844 C 423.433594 427.191406 421.585938 429.039062 419.359375 429.039062 Z M 439.726562 429.039062 L 436.46875 429.039062 C 434.242188 429.039062 432.394531 427.191406 432.394531 424.964844 C 432.394531 422.734375 434.242188 420.886719 436.46875 420.886719 L 439.726562 420.886719 C 441.953125 420.886719 443.800781 422.734375 443.800781 424.964844 C 443.800781 427.191406 441.953125 429.039062 439.726562 429.039062 Z M 460.042969 429.039062 L 456.785156 429.039062 C 454.558594 429.039062 452.710938 427.191406 452.710938 424.964844 C 452.710938 422.734375 454.558594 420.886719 456.785156 420.886719 L 460.042969 420.886719 C 462.269531 420.886719 464.117188 422.734375 464.117188 424.964844 C 464.117188 427.191406 462.324219 429.039062 460.042969 429.039062 Z M 480.414062 429.039062 L 477.152344 429.039062 C 474.925781 429.039062 473.078125 427.191406 473.078125 424.964844 C 473.078125 422.734375 474.925781 420.886719 477.152344 420.886719 L 480.414062 420.886719 C 482.640625 420.886719 484.484375 422.734375 484.484375 424.964844 C 484.484375 427.191406 482.640625 429.039062 480.414062 429.039062 Z M 480.414062 429.039062 " fill-opacity="1" fill-rule="nonzero"/><path fill="#ffffff" d="M 323.703125 677.148438 L 493.992188 677.148438 L 493.992188 690.625 L 323.703125 690.625 Z M 323.703125 677.148438 " fill-opacity="1" fill-rule="nonzero"/><path fill="#f778ac" d="M 394.644531 534.128906 L 422.941406 534.128906 L 422.941406 463.164062 L 394.644531 463.164062 Z M 404.746094 471.421875 C 404.746094 469.195312 406.59375 467.347656 408.820312 467.347656 C 411.046875 467.347656 412.894531 469.195312 412.894531 471.421875 L 412.894531 473.269531 C 412.894531 475.5 411.046875 477.347656 408.820312 477.347656 C 406.59375 477.347656 404.746094 475.554688 404.746094 473.269531 Z M 404.746094 524.023438 C 404.746094 521.796875 406.59375 519.949219 408.820312 519.949219 C 411.046875 519.949219 412.894531 521.796875 412.894531 524.023438 L 412.894531 525.871094 C 412.894531 528.097656 411.046875 529.945312 408.820312 529.945312 C 406.59375 529.945312 404.746094 528.152344 404.746094 525.871094 Z M 404.746094 524.023438 " fill-opacity="1" fill-rule="nonzero"/><path fill="#f778ac" d="M 352.980469 617.8125 L 368.246094 617.8125 L 368.246094 645.253906 L 352.980469 645.253906 Z M 352.980469 617.8125 " fill-opacity="1" fill-rule="nonzero"/><path fill="#f778ac" d="M 488.398438 617.8125 L 376.390625 617.8125 L 376.390625 645.253906 L 488.398438 645.253906 Z M 398.988281 639.601562 L 395.730469 639.601562 C 393.503906 639.601562 391.65625 637.753906 391.65625 635.527344 C 391.65625 633.296875 393.503906 631.449219 395.730469 631.449219 L 398.988281 631.449219 C 401.214844 631.449219 403.0625 633.296875 403.0625 635.527344 C 403.0625 637.753906 401.214844 639.601562 398.988281 639.601562 Z M 419.359375 639.601562 L 416.097656 639.601562 C 413.871094 639.601562 412.023438 637.753906 412.023438 635.527344 C 412.023438 633.296875 413.871094 631.449219 416.097656 631.449219 L 419.359375 631.449219 C 421.585938 631.449219 423.433594 633.296875 423.433594 635.527344 C 423.433594 637.753906 421.585938 639.601562 419.359375 639.601562 Z M 439.726562 639.601562 L 436.46875 639.601562 C 434.242188 639.601562 432.394531 637.753906 432.394531 635.527344 C 432.394531 633.296875 434.242188 631.449219 436.46875 631.449219 L 439.726562 631.449219 C 441.953125 631.449219 443.800781 633.296875 443.800781 635.527344 C 443.800781 637.753906 441.953125 639.601562 439.726562 639.601562 Z M 460.042969 639.601562 L 456.785156 639.601562 C 454.558594 639.601562 452.710938 637.753906 452.710938 635.527344 C 452.710938 633.296875 454.558594 631.449219 456.785156 631.449219 L 460.042969 631.449219 C 462.269531 631.449219 464.117188 633.296875 464.117188 635.527344 C 464.117188 637.753906 462.324219 639.601562 460.042969 639.601562 Z M 480.414062 639.601562 L 477.152344 639.601562 C 474.925781 639.601562 473.078125 637.753906 473.078125 635.527344 C 473.078125 633.296875 474.925781 631.449219 477.152344 631.449219 L 480.414062 631.449219 C 482.640625 631.449219 484.484375 633.296875 484.484375 635.527344 C 484.484375 637.753906 482.640625 639.601562 480.414062 639.601562 Z M 480.414062 639.601562 " fill-opacity="1" fill-rule="nonzero"/><path fill="#f778ac" d="M 329.242188 617.8125 L 344.886719 617.8125 L 344.886719 645.253906 L 329.242188 645.253906 Z M 329.242188 617.8125 " fill-opacity="1" fill-rule="nonzero"/><path fill="#aa96f3" d="M 305.234375 669 L 512.351562 669 L 512.351562 383.503906 L 305.234375 383.503906 Z M 496.542969 538.207031 C 496.542969 540.433594 494.699219 542.28125 492.472656 542.28125 L 456.023438 542.28125 C 453.796875 542.28125 451.949219 540.433594 451.949219 538.207031 L 451.949219 459.089844 C 451.949219 456.859375 453.796875 455.011719 456.023438 455.011719 L 492.472656 455.011719 C 494.699219 455.011719 496.542969 456.859375 496.542969 459.089844 Z M 321.097656 403.175781 C 321.097656 400.945312 322.941406 399.097656 325.167969 399.097656 L 492.472656 399.097656 C 494.699219 399.097656 496.542969 400.945312 496.542969 403.175781 L 496.542969 438.765625 C 496.542969 440.992188 494.699219 442.839844 492.472656 442.839844 L 325.167969 442.839844 C 322.941406 442.839844 321.097656 440.992188 321.097656 438.765625 Z M 431.089844 459.089844 L 431.089844 538.207031 C 431.089844 540.433594 429.246094 542.28125 427.015625 542.28125 L 390.570312 542.28125 C 388.34375 542.28125 386.496094 540.433594 386.496094 538.207031 L 386.496094 459.089844 C 386.496094 456.859375 388.34375 455.011719 390.570312 455.011719 L 427.015625 455.011719 C 429.296875 455.011719 431.089844 456.859375 431.089844 459.089844 Z M 321.097656 459.089844 C 321.097656 456.859375 322.941406 455.011719 325.167969 455.011719 L 361.617188 455.011719 C 363.84375 455.011719 365.691406 456.859375 365.691406 459.089844 L 365.691406 538.207031 C 365.691406 540.433594 363.84375 542.28125 361.617188 542.28125 L 325.167969 542.28125 C 322.941406 542.28125 321.097656 540.433594 321.097656 538.207031 Z M 321.097656 558.527344 C 321.097656 556.300781 322.941406 554.453125 325.167969 554.453125 L 492.472656 554.453125 C 494.699219 554.453125 496.542969 556.300781 496.542969 558.527344 L 496.542969 594.121094 C 496.542969 596.347656 494.699219 598.195312 492.472656 598.195312 L 325.167969 598.195312 C 322.941406 598.195312 321.097656 596.347656 321.097656 594.121094 Z M 321.097656 613.738281 C 321.097656 611.507812 322.941406 609.660156 325.167969 609.660156 L 492.472656 609.660156 C 494.699219 609.660156 496.542969 611.507812 496.542969 613.738281 L 496.542969 649.328125 C 496.542969 651.554688 494.699219 653.402344 492.472656 653.402344 L 325.167969 653.402344 C 322.941406 653.402344 321.097656 651.554688 321.097656 649.328125 Z M 321.097656 613.738281 " fill-opacity="1" fill-rule="nonzero"/><path fill="#ffffff" d="M 323.703125 361.875 L 493.992188 361.875 L 493.992188 375.351562 L 323.703125 375.351562 Z M 323.703125 361.875 " fill-opacity="1" fill-rule="nonzero"/><path fill="#6644a8" d="M 516.480469 361.875 C 518.707031 361.875 520.554688 360.027344 520.554688 357.800781 C 520.554688 355.574219 518.707031 353.726562 516.480469 353.726562 L 301.214844 353.726562 C 298.988281 353.726562 297.140625 355.574219 297.140625 357.800781 C 297.140625 360.027344 298.988281 361.875 301.214844 361.875 L 315.554688 361.875 L 315.554688 375.351562 L 301.214844 375.351562 C 298.988281 375.351562 297.140625 377.199219 297.140625 379.429688 L 297.140625 673.074219 C 297.140625 675.300781 298.988281 677.148438 301.214844 677.148438 L 315.554688 677.148438 L 315.554688 690.625 L 301.214844 690.625 C 298.988281 690.625 297.140625 692.472656 297.140625 694.699219 C 297.140625 696.929688 298.988281 698.777344 301.214844 698.777344 L 516.480469 698.777344 C 518.707031 698.777344 520.554688 696.929688 520.554688 694.699219 C 520.554688 692.472656 518.707031 690.625 516.480469 690.625 L 502.140625 690.625 L 502.140625 677.148438 L 516.480469 677.148438 C 518.707031 677.148438 520.554688 675.300781 520.554688 673.074219 L 520.554688 379.429688 C 520.554688 377.199219 518.707031 375.351562 516.480469 375.351562 L 502.140625 375.351562 L 502.140625 361.875 Z M 323.703125 361.875 L 493.992188 361.875 L 493.992188 375.351562 L 323.703125 375.351562 Z M 493.9375 690.625 L 323.703125 690.625 L 323.703125 677.148438 L 493.992188 677.148438 L 493.992188 690.625 Z M 512.40625 383.503906 L 512.40625 669 L 305.234375 669 L 305.234375 383.503906 Z M 512.40625 383.503906 " fill-opacity="1" fill-rule="nonzero"/><path fill="#6644a8" d="M 325.167969 442.839844 L 492.472656 442.839844 C 494.699219 442.839844 496.542969 440.992188 496.542969 438.765625 L 496.542969 403.175781 C 496.542969 400.945312 494.699219 399.097656 492.472656 399.097656 L 325.167969 399.097656 C 322.941406 399.097656 321.097656 400.945312 321.097656 403.175781 L 321.097656 438.765625 C 321.097656 441.046875 322.941406 442.839844 325.167969 442.839844 Z M 376.390625 407.25 L 488.398438 407.25 L 488.398438 434.691406 L 376.390625 434.691406 Z M 352.980469 407.25 L 368.246094 407.25 L 368.246094 434.691406 L 352.980469 434.691406 Z M 329.242188 407.25 L 344.886719 407.25 L 344.886719 434.691406 L 329.242188 434.691406 Z M 329.242188 407.25 " fill-opacity="1" fill-rule="nonzero"/><path fill="#6644a8" d="M 325.167969 598.195312 L 492.472656 598.195312 C 494.699219 598.195312 496.542969 596.347656 496.542969 594.121094 L 496.542969 558.527344 C 496.542969 556.300781 494.699219 554.453125 492.472656 554.453125 L 325.167969 554.453125 C 322.941406 554.453125 321.097656 556.300781 321.097656 558.527344 L 321.097656 594.121094 C 321.097656 596.402344 322.941406 598.195312 325.167969 598.195312 Z M 376.390625 562.605469 L 488.398438 562.605469 L 488.398438 590.042969 L 376.390625 590.042969 Z M 352.980469 562.605469 L 368.246094 562.605469 L 368.246094 590.042969 L 352.980469 590.042969 Z M 329.242188 562.605469 L 344.886719 562.605469 L 344.886719 590.042969 L 329.242188 590.042969 Z M 329.242188 562.605469 " fill-opacity="1" fill-rule="nonzero"/><path fill="#6644a8" d="M 325.167969 653.402344 L 492.472656 653.402344 C 494.699219 653.402344 496.542969 651.554688 496.542969 649.328125 L 496.542969 613.738281 C 496.542969 611.507812 494.699219 609.660156 492.472656 609.660156 L 325.167969 609.660156 C 322.941406 609.660156 321.097656 611.507812 321.097656 613.738281 L 321.097656 649.328125 C 321.097656 651.609375 322.941406 653.402344 325.167969 653.402344 Z M 376.390625 617.8125 L 488.398438 617.8125 L 488.398438 645.253906 L 376.390625 645.253906 Z M 352.980469 617.8125 L 368.246094 617.8125 L 368.246094 645.253906 L 352.980469 645.253906 Z M 329.242188 617.8125 L 344.886719 617.8125 L 344.886719 645.253906 L 329.242188 645.253906 Z M 329.242188 617.8125 " fill-opacity="1" fill-rule="nonzero"/><path fill="#6644a8" d="M 325.167969 542.28125 L 361.617188 542.28125 C 363.84375 542.28125 365.691406 540.433594 365.691406 538.207031 L 365.691406 459.089844 C 365.691406 456.859375 363.84375 455.011719 361.617188 455.011719 L 325.167969 455.011719 C 322.941406 455.011719 321.097656 456.859375 321.097656 459.089844 L 321.097656 538.207031 C 321.097656 540.488281 322.941406 542.28125 325.167969 542.28125 Z M 329.242188 463.164062 L 357.542969 463.164062 L 357.542969 534.128906 L 329.242188 534.128906 Z M 329.242188 463.164062 " fill-opacity="1" fill-rule="nonzero"/><path fill="#6644a8" d="M 390.570312 455.011719 C 388.34375 455.011719 386.496094 456.859375 386.496094 459.089844 L 386.496094 538.207031 C 386.496094 540.433594 388.34375 542.28125 390.570312 542.28125 L 427.015625 542.28125 C 429.246094 542.28125 431.089844 540.433594 431.089844 538.207031 L 431.089844 459.089844 C 431.089844 456.859375 429.246094 455.011719 427.015625 455.011719 Z M 422.941406 534.128906 L 394.644531 534.128906 L 394.644531 463.164062 L 422.941406 463.164062 Z M 422.941406 534.128906 " fill-opacity="1" fill-rule="nonzero"/><path fill="#6644a8" d="M 492.472656 455.011719 L 456.023438 455.011719 C 453.796875 455.011719 451.949219 456.859375 451.949219 459.089844 L 451.949219 538.207031 C 451.949219 540.433594 453.796875 542.28125 456.023438 542.28125 L 492.472656 542.28125 C 494.699219 542.28125 496.542969 540.433594 496.542969 538.207031 L 496.542969 459.089844 C 496.542969 456.859375 494.699219 455.011719 492.472656 455.011719 Z M 488.398438 534.128906 L 460.097656 534.128906 L 460.097656 463.164062 L 488.398438 463.164062 Z M 488.398438 534.128906 " fill-opacity="1" fill-rule="nonzero"/><path fill="#6644a8" d="M 343.367188 467.347656 C 341.140625 467.347656 339.292969 469.195312 339.292969 471.421875 L 339.292969 473.269531 C 339.292969 475.5 341.140625 477.347656 343.367188 477.347656 C 345.59375 477.347656 347.441406 475.5 347.441406 473.269531 L 347.441406 471.421875 C 347.441406 469.140625 345.648438 467.347656 343.367188 467.347656 Z M 343.367188 467.347656 " fill-opacity="1" fill-rule="nonzero"/><path fill="#6644a8" d="M 343.367188 519.949219 C 341.140625 519.949219 339.292969 521.796875 339.292969 524.023438 L 339.292969 525.871094 C 339.292969 528.097656 341.140625 529.945312 343.367188 529.945312 C 345.59375 529.945312 347.441406 528.097656 347.441406 525.871094 L 347.441406 524.023438 C 347.441406 521.796875 345.648438 519.949219 343.367188 519.949219 Z M 343.367188 519.949219 " fill-opacity="1" fill-rule="nonzero"/><path fill="#6644a8" d="M 408.820312 477.347656 C 411.046875 477.347656 412.894531 475.5 412.894531 473.269531 L 412.894531 471.421875 C 412.894531 469.195312 411.046875 467.347656 408.820312 467.347656 C 406.59375 467.347656 404.746094 469.140625 404.746094 471.421875 L 404.746094 473.269531 C 404.746094 475.554688 406.59375 477.347656 408.820312 477.347656 Z M 408.820312 477.347656 " fill-opacity="1" fill-rule="nonzero"/><path fill="#6644a8" d="M 408.820312 529.945312 C 411.046875 529.945312 412.894531 528.097656 412.894531 525.871094 L 412.894531 524.023438 C 412.894531 521.796875 411.046875 519.949219 408.820312 519.949219 C 406.59375 519.949219 404.746094 521.796875 404.746094 524.023438 L 404.746094 525.871094 C 404.746094 528.152344 406.59375 529.945312 408.820312 529.945312 Z M 408.820312 529.945312 " fill-opacity="1" fill-rule="nonzero"/><path fill="#6644a8" d="M 474.21875 477.347656 C 476.445312 477.347656 478.292969 475.5 478.292969 473.269531 L 478.292969 471.421875 C 478.292969 469.195312 476.445312 467.347656 474.21875 467.347656 C 471.992188 467.347656 470.144531 469.195312 470.144531 471.421875 L 470.144531 473.269531 C 470.144531 475.554688 471.992188 477.347656 474.21875 477.347656 Z M 474.21875 477.347656 " fill-opacity="1" fill-rule="nonzero"/><path fill="#6644a8" d="M 474.21875 529.945312 C 476.445312 529.945312 478.292969 528.097656 478.292969 525.871094 L 478.292969 524.023438 C 478.292969 521.796875 476.445312 519.949219 474.21875 519.949219 C 471.992188 519.949219 470.144531 521.796875 470.144531 524.023438 L 470.144531 525.871094 C 470.144531 528.152344 471.992188 529.945312 474.21875 529.945312 Z M 474.21875 529.945312 " fill-opacity="1" fill-rule="nonzero"/><path fill="#6644a8" d="M 398.988281 420.886719 L 395.730469 420.886719 C 393.503906 420.886719 391.65625 422.734375 391.65625 424.964844 C 391.65625 427.191406 393.503906 429.039062 395.730469 429.039062 L 398.988281 429.039062 C 401.214844 429.039062 403.0625 427.191406 403.0625 424.964844 C 403.0625 422.734375 401.214844 420.886719 398.988281 420.886719 Z M 398.988281 420.886719 " fill-opacity="1" fill-rule="nonzero"/><path fill="#6644a8" d="M 419.359375 420.886719 L 416.097656 420.886719 C 413.871094 420.886719 412.023438 422.734375 412.023438 424.964844 C 412.023438 427.191406 413.871094 429.039062 416.097656 429.039062 L 419.359375 429.039062 C 421.585938 429.039062 423.433594 427.191406 423.433594 424.964844 C 423.433594 422.734375 421.585938 420.886719 419.359375 420.886719 Z M 419.359375 420.886719 " fill-opacity="1" fill-rule="nonzero"/><path fill="#6644a8" d="M 439.726562 420.886719 L 436.46875 420.886719 C 434.242188 420.886719 432.394531 422.734375 432.394531 424.964844 C 432.394531 427.191406 434.242188 429.039062 436.46875 429.039062 L 439.726562 429.039062 C 441.953125 429.039062 443.800781 427.191406 443.800781 424.964844 C 443.800781 422.734375 441.953125 420.886719 439.726562 420.886719 Z M 439.726562 420.886719 " fill-opacity="1" fill-rule="nonzero"/><path fill="#6644a8" d="M 460.042969 420.886719 L 456.785156 420.886719 C 454.558594 420.886719 452.710938 422.734375 452.710938 424.964844 C 452.710938 427.191406 454.558594 429.039062 456.785156 429.039062 L 460.042969 429.039062 C 462.269531 429.039062 464.117188 427.191406 464.117188 424.964844 C 464.117188 422.734375 462.324219 420.886719 460.042969 420.886719 Z M 460.042969 420.886719 " fill-opacity="1" fill-rule="nonzero"/><path fill="#6644a8" d="M 480.414062 420.886719 L 477.152344 420.886719 C 474.925781 420.886719 473.078125 422.734375 473.078125 424.964844 C 473.078125 427.191406 474.925781 429.039062 477.152344 429.039062 L 480.414062 429.039062 C 482.640625 429.039062 484.484375 427.191406 484.484375 424.964844 C 484.484375 422.734375 482.640625 420.886719 480.414062 420.886719 Z M 480.414062 420.886719 " fill-opacity="1" fill-rule="nonzero"/><path fill="#6644a8" d="M 398.988281 576.242188 L 395.730469 576.242188 C 393.503906 576.242188 391.65625 578.089844 391.65625 580.316406 C 391.65625 582.546875 393.503906 584.394531 395.730469 584.394531 L 398.988281 584.394531 C 401.214844 584.394531 403.0625 582.546875 403.0625 580.316406 C 403.0625 578.089844 401.214844 576.242188 398.988281 576.242188 Z M 398.988281 576.242188 " fill-opacity="1" fill-rule="nonzero"/><path fill="#6644a8" d="M 419.359375 576.242188 L 416.097656 576.242188 C 413.871094 576.242188 412.023438 578.089844 412.023438 580.316406 C 412.023438 582.546875 413.871094 584.394531 416.097656 584.394531 L 419.359375 584.394531 C 421.585938 584.394531 423.433594 582.546875 423.433594 580.316406 C 423.433594 578.089844 421.585938 576.242188 419.359375 576.242188 Z M 419.359375 576.242188 " fill-opacity="1" fill-rule="nonzero"/><path fill="#6644a8" d="M 439.726562 576.242188 L 436.46875 576.242188 C 434.242188 576.242188 432.394531 578.089844 432.394531 580.316406 C 432.394531 582.546875 434.242188 584.394531 436.46875 584.394531 L 439.726562 584.394531 C 441.953125 584.394531 443.800781 582.546875 443.800781 580.316406 C 443.800781 578.089844 441.953125 576.242188 439.726562 576.242188 Z M 439.726562 576.242188 " fill-opacity="1" fill-rule="nonzero"/><path fill="#6644a8" d="M 460.042969 576.242188 L 456.785156 576.242188 C 454.558594 576.242188 452.710938 578.089844 452.710938 580.316406 C 452.710938 582.546875 454.558594 584.394531 456.785156 584.394531 L 460.042969 584.394531 C 462.269531 584.394531 464.117188 582.546875 464.117188 580.316406 C 464.117188 578.089844 462.324219 576.242188 460.042969 576.242188 Z M 460.042969 576.242188 " fill-opacity="1" fill-rule="nonzero"/><path fill="#6644a8" d="M 480.414062 576.242188 L 477.152344 576.242188 C 474.925781 576.242188 473.078125 578.089844 473.078125 580.316406 C 473.078125 582.546875 474.925781 584.394531 477.152344 584.394531 L 480.414062 584.394531 C 482.640625 584.394531 484.484375 582.546875 484.484375 580.316406 C 484.484375 578.089844 482.640625 576.242188 480.414062 576.242188 Z M 480.414062 576.242188 " fill-opacity="1" fill-rule="nonzero"/><path fill="#6644a8" d="M 398.988281 631.449219 L 395.730469 631.449219 C 393.503906 631.449219 391.65625 633.296875 391.65625 635.527344 C 391.65625 637.753906 393.503906 639.601562 395.730469 639.601562 L 398.988281 639.601562 C 401.214844 639.601562 403.0625 637.753906 403.0625 635.527344 C 403.0625 633.296875 401.214844 631.449219 398.988281 631.449219 Z M 398.988281 631.449219 " fill-opacity="1" fill-rule="nonzero"/><path fill="#6644a8" d="M 419.359375 631.449219 L 416.097656 631.449219 C 413.871094 631.449219 412.023438 633.296875 412.023438 635.527344 C 412.023438 637.753906 413.871094 639.601562 416.097656 639.601562 L 419.359375 639.601562 C 421.585938 639.601562 423.433594 637.753906 423.433594 635.527344 C 423.433594 633.296875 421.585938 631.449219 419.359375 631.449219 Z M 419.359375 631.449219 " fill-opacity="1" fill-rule="nonzero"/><path fill="#6644a8" d="M 439.726562 631.449219 L 436.46875 631.449219 C 434.242188 631.449219 432.394531 633.296875 432.394531 635.527344 C 432.394531 637.753906 434.242188 639.601562 436.46875 639.601562 L 439.726562 639.601562 C 441.953125 639.601562 443.800781 637.753906 443.800781 635.527344 C 443.800781 633.296875 441.953125 631.449219 439.726562 631.449219 Z M 439.726562 631.449219 " fill-opacity="1" fill-rule="nonzero"/><path fill="#6644a8" d="M 460.042969 631.449219 L 456.785156 631.449219 C 454.558594 631.449219 452.710938 633.296875 452.710938 635.527344 C 452.710938 637.753906 454.558594 639.601562 456.785156 639.601562 L 460.042969 639.601562 C 462.269531 639.601562 464.117188 637.753906 464.117188 635.527344 C 464.117188 633.296875 462.324219 631.449219 460.042969 631.449219 Z M 460.042969 631.449219 " fill-opacity="1" fill-rule="nonzero"/><path fill="#6644a8" d="M 480.414062 631.449219 L 477.152344 631.449219 C 474.925781 631.449219 473.078125 633.296875 473.078125 635.527344 C 473.078125 637.753906 474.925781 639.601562 477.152344 639.601562 L 480.414062 639.601562 C 482.640625 639.601562 484.484375 637.753906 484.484375 635.527344 C 484.484375 633.296875 482.640625 631.449219 480.414062 631.449219 Z M 480.414062 631.449219 " fill-opacity="1" fill-rule="nonzero"/><path fill="#6644a8" d="M 171.230469 394.75 L 186.601562 414.53125 L 175.140625 414.53125 L 159.824219 394.75 L 175.140625 375.027344 L 186.601562 375.027344 Z M 171.230469 394.75 " fill-opacity="1" fill-rule="nonzero"/><path fill="#6644a8" d="M 233.914062 394.75 L 218.542969 414.53125 L 230.003906 414.53125 L 245.375 394.75 L 230.003906 375.027344 L 218.542969 375.027344 Z M 233.914062 394.75 " fill-opacity="1" fill-rule="nonzero"/><path fill="#6644a8" d="M 197.792969 424.421875 L 220.390625 361.875 L 212.621094 361.875 L 190.023438 424.421875 Z M 197.792969 424.421875 " fill-opacity="1" fill-rule="nonzero"/></svg>